<svg data-v-423bf9ae="" xmlns="http://www.w3.org/2000/svg" viewBox="0 0 175 90" class="iconLeftSlogan"><!----><!----><!----><g data-v-423bf9ae="" id="c5b6a79e-7379-426e-912d-c2fe2d1a50e8" fill="black" transform="matrix(4.676539736296766,0,0,4.676539736296766,64.7790090468796,-15.432581622040274)"><path d="M0.28 13.33L0.28 13.33L0.28 13.33Q0.28 13.13 0.49 13.06L0.49 13.06L0.49 13.06Q0.94 12.89 1.27 12.31L1.27 12.31L1.27 12.31Q1.61 11.73 2.94 8.83L2.94 8.83L2.94 8.83Q4.31 5.87 5.36 3.63L5.36 3.63L5.36 3.63Q5.46 3.42 5.54 3.36L5.54 3.36L5.54 3.36Q5.61 3.30 5.78 3.30L5.78 3.30L5.78 3.30Q5.91 3.30 5.95 3.36L5.95 3.36L5.95 3.36Q5.99 3.42 6.13 3.82L6.13 3.82L6.13 3.82Q6.22 4.06 6.28 4.23L6.28 4.23L6.28 4.23Q6.34 4.40 6.48 4.77L6.48 4.77L6.48 4.77Q6.62 5.15 6.79 5.56L6.79 5.56L6.79 5.56Q7.24 6.66 8.34 9.22L8.34 9.22L8.34 9.22Q9.44 11.77 9.53 11.98L9.53 11.98L9.53 11.98Q9.77 12.46 10.07 12.71L10.07 12.71L10.07 12.71Q10.36 12.95 10.58 12.97L10.58 12.97L10.58 12.97Q10.79 12.99 10.94 13.04L10.94 13.04L10.94 13.04Q11.09 13.09 11.09 13.26L11.09 13.26L11.09 13.26Q11.09 13.47 10.71 13.47L10.71 13.47L10.71 13.47Q10.56 13.47 10.11 13.43L10.11 13.43L10.11 13.43Q9.66 13.38 9.45 13.38L9.45 13.38L9.45 13.38Q9.18 13.38 8.76 13.41L8.76 13.41L8.76 13.41Q8.34 13.44 8.15 13.44L8.15 13.44L8.15 13.44Q7.71 13.44 7.59 13.40L7.59 13.40L7.59 13.40Q7.48 13.37 7.48 13.24L7.48 13.24L7.48 13.24Q7.48 13.15 7.59 13.08L7.59 13.08L7.59 13.08Q7.70 13.02 7.83 13.00L7.83 13.00L7.83 13.00Q7.95 12.98 8.06 12.87L8.06 12.87L8.06 12.87Q8.18 12.77 8.18 12.59L8.18 12.59L8.18 12.59Q8.18 12.28 7.83 11.33L7.83 11.33L7.83 11.33Q7.48 10.37 7.24 9.93L7.24 9.93L7.24 9.93Q7.11 9.69 6.66 9.69L6.66 9.69L6.66 9.69Q6.59 9.69 6.05 9.70L6.05 9.70L6.05 9.70Q5.50 9.72 4.97 9.72L4.97 9.72L4.23 9.72L4.23 9.72Q3.60 9.72 3.44 9.79L3.44 9.79L3.44 9.79Q3.28 9.86 3.15 10.12L3.15 10.12L3.15 10.12Q3.07 10.30 2.87 10.70L2.87 10.70L2.87 10.70Q2.67 11.10 2.60 11.26L2.60 11.26L2.60 11.26Q2.53 11.41 2.43 11.65L2.43 11.65L2.43 11.65Q2.32 11.90 2.29 12.05L2.29 12.05L2.29 12.05Q2.25 12.19 2.25 12.31L2.25 12.31L2.25 12.31Q2.25 12.63 2.42 12.80L2.42 12.80L2.42 12.80Q2.58 12.96 2.77 12.98L2.77 12.98L2.77 12.98Q2.97 13.01 3.13 13.06L3.13 13.06L3.13 13.06Q3.29 13.12 3.29 13.26L3.29 13.26L3.29 13.26Q3.29 13.36 3.25 13.40L3.25 13.40L3.25 13.40Q3.21 13.45 3.05 13.45L3.05 13.45L3.05 13.45Q2.97 13.45 2.57 13.45L2.57 13.45L2.57 13.45Q2.17 13.44 1.89 13.44L1.89 13.44L1.89 13.44Q1.58 13.44 1.20 13.47L1.20 13.47L1.20 13.47Q0.81 13.50 0.69 13.50L0.69 13.50L0.69 13.50Q0.28 13.50 0.28 13.33ZM3.79 8.71L3.79 8.71L3.79 8.71Q3.79 8.89 3.92 8.93L3.92 8.93L3.92 8.93Q4.05 8.97 4.51 8.97L4.51 8.97L4.94 8.97L6.27 8.96L6.27 8.96Q6.82 8.96 6.82 8.74L6.82 8.74L6.82 8.74Q6.82 8.55 6.13 7.01L6.13 7.01L6.13 7.01Q5.45 5.46 5.26 5.46L5.26 5.46L5.26 5.46Q5.14 5.46 4.47 7.01L4.47 7.01L4.47 7.01Q3.79 8.55 3.79 8.71ZM10.53 15.60L10.53 15.60L10.53 15.60Q10.53 15.39 10.69 15.11L10.69 15.11L10.69 15.11Q10.85 14.83 10.96 14.83L10.96 14.83L10.96 14.83Q11.05 14.83 11.26 15.06L11.26 15.06L11.26 15.06Q11.48 15.30 11.77 15.30L11.77 15.30L11.77 15.30Q12.54 15.30 12.74 14.21L12.74 14.21L12.74 14.21Q12.92 13.26 12.92 12.52L12.92 12.52L12.92 12.52Q12.92 12.36 12.92 11.94L12.92 11.94L12.92 11.94Q12.92 11.52 12.92 11.16L12.92 11.16L12.91 10.79L12.91 10.79Q12.91 10.51 12.90 10.30L12.90 10.30L12.90 10.30Q12.89 10.09 12.89 9.86L12.89 9.86L12.89 9.86Q12.88 9.62 12.87 8.64L12.87 8.64L12.87 8.64Q12.87 7.66 12.87 6.02L12.87 6.02L12.87 6.02Q12.87 5.12 12.81 4.63L12.81 4.63L12.81 4.63Q12.77 4.30 12.44 4.13L12.44 4.13L12.44 4.13Q12.11 3.96 11.75 3.95L11.75 3.95L11.75 3.95Q11.44 3.93 11.44 3.70L11.44 3.70L11.44 3.70Q11.44 3.46 11.84 3.46L11.84 3.46L11.84 3.46Q11.98 3.46 12.48 3.50L12.48 3.50L12.48 3.50Q12.98 3.54 13.43 3.54L13.43 3.54L13.43 3.54Q13.69 3.54 13.89 3.54L13.89 3.54L13.89 3.54Q14.08 3.53 14.56 3.53L14.56 3.53L14.56 3.53Q14.95 3.53 14.95 3.71L14.95 3.71L14.95 3.71Q14.95 3.84 14.31 4.10L14.31 4.10L14.31 4.10Q14.01 4.21 14.01 5.05L14.01 5.05L14.01 5.70L14.01 5.70Q14.01 8.02 14.01 9.50L14.01 9.50L14.01 9.50Q14 10.98 14 11.40L14 11.40L14 11.40Q14 11.82 13.99 12.07L13.99 12.07L13.99 12.07Q13.99 12.32 13.99 12.47L13.99 12.47L13.99 12.47Q13.99 14.07 13.13 15.10L13.13 15.10L13.13 15.10Q12.26 16.13 11.09 16.13L11.09 16.13L11.09 16.13Q10.53 16.13 10.53 15.60ZM16.00 4.35L16.00 4.35L16.00 4.35Q16.00 4.27 16.38 3.89L16.38 3.89L16.38 3.89Q16.41 3.86 16.53 3.72L16.53 3.72L16.53 3.72Q16.65 3.57 16.74 3.51L16.74 3.51L16.74 3.51Q16.83 3.46 16.94 3.46L16.94 3.46L16.94 3.46Q16.98 3.46 17.08 3.51L17.08 3.51L17.08 3.51Q17.18 3.56 17.32 3.68L17.32 3.68L17.32 3.68Q17.46 3.81 17.58 3.98L17.58 3.98L17.58 3.98Q17.71 4.14 17.79 4.42L17.79 4.42L17.79 4.42Q17.88 4.70 17.88 5.03L17.88 5.03L17.88 5.03Q17.88 5.61 17.68 6.12L17.68 6.12L17.68 6.12Q17.49 6.62 17.22 6.89L17.22 6.89L17.22 6.89Q16.95 7.17 16.72 7.31L16.72 7.31L16.72 7.31Q16.49 7.46 16.37 7.46L16.37 7.46L16.37 7.46Q16.30 7.46 16.24 7.40L16.24 7.40L16.24 7.40Q16.18 7.34 16.18 7.29L16.18 7.29L16.18 7.29Q16.18 7.21 16.30 7.10L16.30 7.10L16.30 7.10Q16.42 7.00 16.58 6.88L16.58 6.88L16.58 6.88Q16.73 6.76 16.85 6.50L16.85 6.50L16.85 6.50Q16.97 6.23 16.97 5.87L16.97 5.87L16.97 5.87Q16.97 5.49 16.81 5.23L16.81 5.23L16.81 5.23Q16.66 4.97 16.48 4.87L16.48 4.87L16.48 4.87Q16.31 4.77 16.16 4.65L16.16 4.65L16.16 4.65Q16.00 4.52 16.00 4.35ZM19.26 12.84L19.26 12.84L19.26 11.62L19.26 11.62Q19.26 11.47 19.33 11.36L19.33 11.36L19.33 11.36Q19.39 11.26 19.47 11.26L19.47 11.26L19.47 11.26Q19.61 11.26 19.66 11.32L19.66 11.32L19.66 11.32Q19.71 11.38 19.75 11.58L19.75 11.58L19.75 11.58Q19.80 11.77 19.84 11.86L19.84 11.86L19.84 11.86Q20.36 13.15 21.29 13.15L21.29 13.15L21.29 13.15Q21.73 13.15 22.12 12.91L22.12 12.91L22.12 12.91Q22.51 12.68 22.51 12.15L22.51 12.15L22.51 12.15Q22.51 11.69 22.19 11.38L22.19 11.38L22.19 11.38Q21.87 11.07 21.41 10.90L21.41 10.90L21.41 10.90Q20.94 10.72 20.48 10.54L20.48 10.54L20.48 10.54Q20.02 10.35 19.70 9.97L19.70 9.97L19.70 9.97Q19.38 9.60 19.38 9.04L19.38 9.04L19.38 9.04Q19.38 8.26 20.01 7.78L20.01 7.78L20.01 7.78Q20.64 7.31 21.49 7.31L21.49 7.31L21.49 7.31Q22.15 7.31 22.54 7.43L22.54 7.43L22.54 7.43Q22.93 7.55 23.01 7.64L23.01 7.64L23.01 7.64Q23.09 7.74 23.09 7.83L23.09 7.83L23.09 7.83Q23.09 7.84 23.11 8.20L23.11 8.20L23.11 8.20Q23.14 8.57 23.14 8.67L23.14 8.67L23.14 8.67Q23.14 8.90 23.09 8.99L23.09 8.99L23.09 8.99Q23.03 9.07 22.89 9.07L22.89 9.07L22.89 9.07Q22.82 9.07 22.70 8.87L22.70 8.87L22.70 8.87Q22.58 8.67 22.43 8.43L22.43 8.43L22.43 8.43Q22.29 8.19 21.96 7.99L21.96 7.99L21.96 7.99Q21.63 7.78 21.20 7.78L21.20 7.78L21.20 7.78Q20.79 7.78 20.52 7.99L20.52 7.99L20.52 7.99Q20.26 8.19 20.26 8.50L20.26 8.50L20.26 8.50Q20.26 8.67 20.30 8.81L20.30 8.81L20.30 8.81Q20.34 8.96 20.45 9.07L20.45 9.07L20.45 9.07Q20.55 9.18 20.63 9.26L20.63 9.26L20.63 9.26Q20.71 9.34 20.89 9.42L20.89 9.42L20.89 9.42Q21.07 9.51 21.16 9.54L21.16 9.54L21.16 9.54Q21.25 9.58 21.47 9.65L21.47 9.65L21.47 9.65Q21.69 9.73 21.76 9.76L21.76 9.76L21.76 9.76Q22.76 10.14 23.11 10.55L23.11 10.55L23.11 10.55Q23.46 10.96 23.46 11.77L23.46 11.77L23.46 11.77Q23.46 12.56 22.72 13.23L22.72 13.23L22.72 13.23Q22.22 13.66 21.34 13.66L21.34 13.66L21.34 13.66Q21.08 13.66 20.80 13.61L20.80 13.61L20.80 13.61Q20.52 13.55 20.36 13.50L20.36 13.50L20.36 13.50Q20.20 13.45 19.99 13.37L19.99 13.37L19.99 13.37Q19.78 13.29 19.77 13.29L19.77 13.29L19.77 13.29Q19.71 13.27 19.63 13.24L19.63 13.24L19.63 13.24Q19.56 13.22 19.52 13.21L19.52 13.21L19.52 13.21Q19.49 13.20 19.43 13.17L19.43 13.17L19.43 13.17Q19.38 13.15 19.36 13.13L19.36 13.13L19.36 13.13Q19.33 13.10 19.31 13.06L19.31 13.06L19.31 13.06Q19.28 13.02 19.27 12.96L19.27 12.96L19.27 12.96Q19.26 12.91 19.26 12.84Z"></path></g><!----><g data-v-423bf9ae="" id="e772dd40-df3e-439e-821d-7b1a3e4c9dab" transform="matrix(2.8125,0,0,2.8125,-21.194407999515533,0)" stroke="none" fill="black"><path d="M18.396 26.495L7.807 15.905 18.432 5.28l.707.707-9.918 9.918 9.882 9.883z"></path><path d="M23.194 1v4.194H19V1h4.194m1-1H18v6.194h6.194V0zM23.194 26.806V31H19v-4.194h4.194m1-1H18V32h6.194v-6.194z"></path></g><!----><g data-v-423bf9ae="" id="37e507ac-2359-4155-8a53-033365ff81f5" fill="black" transform="matrix(0.21586535815165867,0,0,0.21586535815165867,65.42573046814432,58.978955730569474)"><path d="M3.21 15.61L3.21 15.61L3.21 15.61Q3.14 15.04 3.10 14.36L3.10 14.36L3.10 14.36Q3.07 13.68 3.07 13.09L3.07 13.09L3.07 13.09Q3.07 12.15 3.13 11.29L3.13 11.29L3.13 11.29Q3.19 10.43 3.28 9.48L3.28 9.48L3.28 9.48Q3.37 8.54 3.49 7.43L3.49 7.43L3.49 7.43Q3.60 6.31 3.68 4.86L3.68 4.86L3.68 4.86Q3.86 4.86 4.21 4.96L4.21 4.96L4.21 4.96Q4.55 5.07 4.90 5.21L4.90 5.21L4.90 5.21Q5.25 5.35 5.52 5.49L5.52 5.49L5.52 5.49Q5.78 5.64 5.82 5.74L5.82 5.74L5.82 5.74Q5.59 6.29 5.40 7.18L5.40 7.18L5.40 7.18Q5.21 8.06 5.08 9.11L5.08 9.11L5.08 9.11Q4.96 10.16 4.89 11.27L4.89 11.27L4.89 11.27Q4.82 12.38 4.82 13.34L4.82 13.34L4.82 13.34Q4.82 13.79 4.83 14.22L4.83 14.22L4.83 14.22Q4.84 14.66 4.87 15.02L4.87 15.02L4.87 15.02Q5.17 14.59 5.55 13.78L5.55 13.78L5.55 13.78Q5.94 12.98 6.35 11.98L6.35 11.98L6.35 11.98Q6.76 10.99 7.17 9.91L7.17 9.91L7.17 9.91Q7.59 8.82 7.94 7.83L7.94 7.83L7.94 7.83Q8.29 6.85 8.53 6.05L8.53 6.05L8.53 6.05Q8.78 5.26 8.88 4.86L8.88 4.86L8.88 4.86Q9.06 4.86 9.42 4.96L9.42 4.96L9.42 4.96Q9.77 5.07 10.12 5.21L10.12 5.21L10.12 5.21Q10.46 5.35 10.72 5.49L10.72 5.49L10.72 5.49Q10.99 5.64 11.02 5.74L11.02 5.74L11.02 5.74Q10.78 6.29 10.59 7.18L10.59 7.18L10.59 7.18Q10.40 8.06 10.28 9.11L10.28 9.11L10.28 9.11Q10.15 10.16 10.08 11.27L10.08 11.27L10.08 11.27Q10.01 12.38 10.01 13.34L10.01 13.34L10.01 13.34Q10.01 13.75 10.02 14.15L10.02 14.15L10.02 14.15Q10.02 14.55 10.05 14.87L10.05 14.87L10.05 14.87Q10.50 13.71 10.98 12.56L10.98 12.56L10.98 12.56Q11.47 11.42 11.94 10.38L11.94 10.38L11.94 10.38Q12.42 9.34 12.87 8.43L12.87 8.43L12.87 8.43Q13.31 7.53 13.69 6.82L13.69 6.82L13.69 6.82Q14.07 6.12 14.35 5.66L14.35 5.66L14.35 5.66Q14.63 5.19 14.78 5.04L14.78 5.04L14.78 5.04Q15.11 5.08 15.45 5.27L15.45 5.27L15.45 5.27Q15.79 5.46 16.06 5.75L16.06 5.75L16.06 5.75Q15.65 6.08 15.13 6.81L15.13 6.81L15.13 6.81Q14.62 7.55 14.07 8.51L14.07 8.51L14.07 8.51Q13.52 9.48 12.97 10.57L12.97 10.57L12.97 10.57Q12.42 11.66 11.94 12.70L11.94 12.70L11.94 12.70Q11.47 13.73 11.10 14.63L11.10 14.63L11.10 14.63Q10.72 15.53 10.53 16.07L10.53 16.07L10.53 16.07Q10.16 16.24 9.81 16.24L9.81 16.24L9.81 16.24Q9.37 16.18 8.97 16.02L8.97 16.02L8.97 16.02Q8.57 15.85 8.40 15.61L8.40 15.61L8.40 15.61Q8.36 15.39 8.33 15.09L8.33 15.09L8.33 15.09Q8.30 14.78 8.29 14.49L8.29 14.49L8.29 14.49Q8.27 14.20 8.27 13.92L8.27 13.92L8.27 13.92Q8.26 13.65 8.26 13.45L8.26 13.45L8.26 13.45Q8.26 12.21 8.36 10.91L8.36 10.91L8.36 10.91Q8.46 9.62 8.60 8.13L8.60 8.13L8.60 8.13Q8.27 9.09 7.88 10.18L7.88 10.18L7.88 10.18Q7.49 11.27 7.06 12.34L7.06 12.34L7.06 12.34Q6.64 13.41 6.20 14.38L6.20 14.38L6.20 14.38Q5.75 15.36 5.33 16.07L5.33 16.07L5.33 16.07Q4.97 16.24 4.62 16.24L4.62 16.24L4.62 16.24Q4.17 16.18 3.77 16.02L3.77 16.02L3.77 16.02Q3.37 15.85 3.21 15.61ZM27.54 9.21L27.54 9.21L27.54 9.21Q28 9.21 28.26 9.46L28.26 9.46L28.26 9.46Q28.52 9.72 28.52 10.16L28.52 10.16L28.52 10.16Q28.52 10.28 28.50 10.39L28.50 10.39L28.50 10.39Q28.48 10.51 28.45 10.60L28.45 10.60L28.45 10.60Q28.27 10.57 28.04 10.55L28.04 10.55L28.04 10.55Q27.82 10.53 27.51 10.53L27.51 10.53L27.51 10.53Q26.91 10.53 26.29 10.63L26.29 10.63L26.29 10.63Q25.68 10.74 25.12 10.81L25.12 10.81L25.12 10.81Q24.79 11.55 24.53 12.24L24.53 12.24L24.53 12.24Q24.26 12.94 24.07 13.51L24.07 13.51L24.07 13.51Q23.88 14.08 23.78 14.50L23.78 14.50L23.78 14.50Q23.67 14.92 23.66 15.13L23.66 15.13L23.66 15.13Q24.79 14.90 25.95 14.73L25.95 14.73L25.95 14.73Q27.10 14.56 28.38 14.48L28.38 14.48L28.38 14.48Q28.53 14.71 28.64 14.99L28.64 14.99L28.64 14.99Q28.74 15.27 28.74 15.60L28.74 15.60L28.74 15.60Q28.74 15.68 28.74 15.78L28.74 15.78L28.74 15.78Q28.74 15.88 28.71 15.97L28.71 15.97L28.71 15.97Q28.32 15.96 27.89 15.95L27.89 15.95L27.89 15.95Q27.45 15.95 26.75 15.95L26.75 15.95L26.75 15.95Q26.29 15.95 25.88 15.97L25.88 15.97L25.88 15.97Q25.47 15.99 25.05 16.03L25.05 16.03L25.05 16.03Q24.63 16.07 24.16 16.14L24.16 16.14L24.16 16.14Q23.69 16.21 23.10 16.31L23.10 16.31L23.10 16.31Q22.46 16.06 21.85 15.08L21.85 15.08L21.85 15.08Q22.09 14.57 22.52 13.54L22.52 13.54L22.52 13.54Q22.95 12.52 23.60 10.79L23.60 10.79L23.60 10.79Q22.97 10.60 22.78 10.09L22.78 10.09L22.78 10.09Q22.85 10.02 23.18 9.92L23.18 9.92L23.18 9.92Q23.52 9.81 24.01 9.70L24.01 9.70L24.01 9.70Q24.22 9.16 24.37 8.75L24.37 8.75L24.37 8.75Q24.51 8.34 24.63 7.99L24.63 7.99L24.63 7.99Q24.74 7.63 24.83 7.29L24.83 7.29L24.83 7.29Q24.92 6.94 25.00 6.54L25.00 6.54L25.00 6.54Q24.51 6.51 24.23 6.27L24.23 6.27L24.23 6.27Q23.95 6.02 23.95 5.63L23.95 5.63L23.95 5.63Q23.95 5.52 23.99 5.36L23.99 5.36L23.99 5.36Q24.02 5.21 24.07 5.10L24.07 5.10L24.07 5.10Q24.35 5.14 24.60 5.15L24.60 5.15L24.60 5.15Q24.86 5.17 25.28 5.17L25.28 5.17L25.28 5.17Q26.17 5.17 26.94 5.12L26.94 5.12L26.94 5.12Q27.71 5.07 28.33 5.01L28.33 5.01L28.33 5.01Q28.95 4.96 29.40 4.91L29.40 4.91L29.40 4.91Q29.85 4.86 30.09 4.86L30.09 4.86L30.09 4.86Q30.41 4.86 30.66 5.19L30.66 5.19L30.66 5.19Q30.91 5.53 31.04 6.15L31.04 6.15L31.04 6.15Q30.60 6.10 30.33 6.09L30.33 6.09L30.33 6.09Q30.06 6.08 29.85 6.08L29.85 6.08L29.85 6.08Q29.08 6.08 28.44 6.15L28.44 6.15L28.44 6.15Q27.80 6.23 27.22 6.31L27.22 6.31L27.22 6.31Q27.13 6.44 27.03 6.64L27.03 6.64L27.03 6.64Q26.92 6.83 26.75 7.18L26.75 7.18L26.75 7.18Q26.59 7.53 26.34 8.06L26.34 8.06L26.34 8.06Q26.10 8.60 25.75 9.39L25.75 9.39L25.75 9.39Q26.28 9.31 26.75 9.26L26.75 9.26L26.75 9.26Q27.22 9.21 27.54 9.21ZM55.37 10.72L55.37 10.72L55.37 10.72Q55.73 10.72 55.94 10.98L55.94 10.98L55.94 10.98Q56.15 11.23 56.15 11.68L56.15 11.68L56.15 11.68Q56.15 11.79 56.14 11.91L56.14 11.91L56.14 11.91Q56.13 12.03 56.10 12.11L56.10 12.11L56.10 12.11Q55.80 12.04 55.45 12.03L55.45 12.03L55.45 12.03Q55.37 12.64 55.01 13.32L55.01 13.32L55.01 13.32Q54.64 14 54.12 14.60L54.12 14.60L54.12 14.60Q53.61 15.19 52.99 15.64L52.99 15.64L52.99 15.64Q52.37 16.09 51.77 16.24L51.77 16.24L51.77 16.24Q49.90 16.20 49.03 15.27L49.03 15.27L49.03 15.27Q48.17 14.34 48.17 12.36L48.17 12.36L48.17 12.36Q48.17 10.92 48.71 9.57L48.71 9.57L48.71 9.57Q49.24 8.22 50.12 7.17L50.12 7.17L50.12 7.17Q51.00 6.12 52.14 5.48L52.14 5.48L52.14 5.48Q53.28 4.84 54.52 4.84L54.52 4.84L54.52 4.84Q55.48 4.84 56.02 5.25L56.02 5.25L56.02 5.25Q56.56 5.66 56.56 6.40L56.56 6.40L56.56 6.40Q56.56 6.89 56.33 7.31L56.33 7.31L56.33 7.31Q56.10 7.73 55.57 8.22L55.57 8.22L55.57 8.22Q55.24 8.12 55.01 7.88L55.01 7.88L55.01 7.88Q54.77 7.63 54.71 7.31L54.71 7.31L54.71 7.31Q55.19 6.96 55.38 6.66L55.38 6.66L55.38 6.66Q55.58 6.37 55.58 5.96L55.58 5.96L55.58 5.96Q55.58 5.32 54.81 5.32L54.81 5.32L54.81 5.32Q54.18 5.32 53.46 5.79L53.46 5.79L53.46 5.79Q52.74 6.26 52.01 7.14L52.01 7.14L52.01 7.14Q50.97 8.39 50.50 9.71L50.50 9.71L50.50 9.71Q50.02 11.03 50.02 12.68L50.02 12.68L50.02 12.68Q50.02 13.30 50.15 13.80L50.15 13.80L50.15 13.80Q50.27 14.31 50.48 14.69L50.48 14.69L50.48 14.69Q50.69 15.06 50.98 15.29L50.98 15.29L50.98 15.29Q51.27 15.51 51.60 15.54L51.60 15.54L51.60 15.54Q52.05 15.44 52.50 15.09L52.50 15.09L52.50 15.09Q52.95 14.73 53.32 14.25L53.32 14.25L53.32 14.25Q53.69 13.76 53.95 13.21L53.95 13.21L53.95 13.21Q54.21 12.66 54.26 12.15L54.26 12.15L54.26 12.15Q53.87 12.24 53.51 12.31L53.51 12.31L53.51 12.31Q53.16 12.39 52.84 12.39L52.84 12.39L52.84 12.39Q52.42 12.39 52.10 12.18L52.10 12.18L52.10 12.18Q51.79 11.97 51.67 11.61L51.67 11.61L51.67 11.61Q51.93 11.47 52.41 11.31L52.41 11.31L52.41 11.31Q52.89 11.16 53.44 11.03L53.44 11.03L53.44 11.03Q53.98 10.89 54.51 10.81L54.51 10.81L54.51 10.81Q55.03 10.72 55.37 10.72ZM64.13 14.38L64.13 14.38L64.13 14.38Q64.13 13.87 64.30 13.07L64.30 13.07L64.30 13.07Q64.46 12.26 64.72 11.33L64.72 11.33L64.72 11.33Q64.97 10.40 65.31 9.43L65.31 9.43L65.31 9.43Q65.65 8.46 66.00 7.60L66.00 7.60L66.00 7.60Q66.35 6.75 66.68 6.10L66.68 6.10L66.68 6.10Q67.02 5.46 67.28 5.18L67.28 5.18L67.28 5.18Q67.42 5.19 67.66 5.29L67.66 5.29L67.66 5.29Q67.89 5.38 68.12 5.50L68.12 5.50L68.12 5.50Q68.36 5.63 68.56 5.78L68.56 5.78L68.56 5.78Q68.75 5.92 68.81 6.05L68.81 6.05L68.81 6.05Q68.40 6.41 68.00 7.15L68.00 7.15L68.00 7.15Q67.61 7.88 67.23 8.82L67.23 8.82L67.23 8.82Q66.86 9.76 66.54 10.80L66.54 10.80L66.54 10.80Q66.22 11.84 65.98 12.82L65.98 12.82L65.98 12.82Q65.74 13.80 65.61 14.64L65.61 14.64L65.61 14.64Q65.48 15.48 65.48 16.00L65.48 16.00L65.48 16.00Q65.48 16.24 65.52 16.30L65.52 16.30L65.52 16.30Q65.21 16.28 65.07 16.19L65.07 16.19L65.07 16.19Q64.93 16.10 64.86 16.00L64.86 16.00L64.86 16.00Q64.78 15.89 64.72 15.79L64.72 15.79L64.72 15.79Q64.65 15.68 64.53 15.62L64.53 15.62L64.53 15.62Q64.43 15.58 64.36 15.43L64.36 15.43L64.36 15.43Q64.29 15.27 64.24 15.09L64.24 15.09L64.24 15.09Q64.19 14.90 64.16 14.70L64.16 14.70L64.16 14.70Q64.13 14.50 64.13 14.38ZM79.58 16.07L79.58 16.07L79.58 16.07Q79.25 16.24 78.89 16.24L78.89 16.24L78.89 16.24Q78.44 16.18 78.03 16.02L78.03 16.02L78.03 16.02Q77.62 15.85 77.42 15.61L77.42 15.61L77.42 15.61Q77.31 14.92 77.24 14.35L77.24 14.35L77.24 14.35Q77.17 13.78 77.13 13.27L77.13 13.27L77.13 13.27Q77.08 12.75 77.07 12.29L77.07 12.29L77.07 12.29Q77.06 11.82 77.06 11.34L77.06 11.34L77.06 11.34Q77.06 10.71 77.07 10.01L77.07 10.01L77.07 10.01Q77.08 9.31 77.10 8.52L77.10 8.52L77.10 8.52Q77.13 7.73 77.14 6.82L77.14 6.82L77.14 6.82Q77.15 5.92 77.15 4.86L77.15 4.86L77.15 4.86Q77.34 4.86 77.70 4.96L77.70 4.96L77.70 4.96Q78.06 5.07 78.42 5.21L78.42 5.21L78.42 5.21Q78.78 5.35 79.06 5.49L79.06 5.49L79.06 5.49Q79.34 5.64 79.37 5.74L79.37 5.74L79.37 5.74Q79.23 6.13 79.12 6.76L79.12 6.76L79.12 6.76Q79.02 7.39 78.95 8.16L78.95 8.16L78.95 8.16Q78.89 8.93 78.86 9.79L78.86 9.79L78.86 9.79Q78.83 10.64 78.83 11.48L78.83 11.48L78.83 11.48Q78.83 12.11 78.85 12.61L78.85 12.61L78.85 12.61Q78.86 13.10 78.88 13.50L78.88 13.50L78.88 13.50Q78.90 13.90 78.95 14.25L78.95 14.25L78.95 14.25Q78.99 14.59 79.04 14.92L79.04 14.92L79.04 14.92Q79.44 13.73 79.91 12.54L79.91 12.54L79.91 12.54Q80.37 11.35 80.87 10.25L80.87 10.25L80.87 10.25Q81.37 9.16 81.86 8.20L81.86 8.20L81.86 8.20Q82.35 7.25 82.79 6.54L82.79 6.54L82.79 6.54Q83.23 5.84 83.58 5.43L83.58 5.43L83.58 5.43Q83.93 5.01 84.15 4.98L84.15 4.98L84.15 4.98Q84.31 5.01 84.48 5.10L84.48 5.10L84.48 5.10Q84.66 5.19 84.81 5.32L84.81 5.32L84.81 5.32Q84.97 5.45 85.09 5.60L85.09 5.60L85.09 5.60Q85.22 5.75 85.29 5.91L85.29 5.91L85.29 5.91Q84.77 6.09 84.17 6.76L84.17 6.76L84.17 6.76Q83.58 7.43 82.98 8.38L82.98 8.38L82.98 8.38Q82.38 9.32 81.81 10.44L81.81 10.44L81.81 10.44Q81.24 11.55 80.79 12.61L80.79 12.61L80.79 12.61Q80.33 13.68 80.01 14.60L80.01 14.60L80.01 14.60Q79.69 15.53 79.58 16.07ZM96.54 9.21L96.54 9.21L96.54 9.21Q97.01 9.21 97.27 9.46L97.27 9.46L97.27 9.46Q97.52 9.72 97.52 10.16L97.52 10.16L97.52 10.16Q97.52 10.28 97.50 10.39L97.50 10.39L97.50 10.39Q97.48 10.51 97.45 10.60L97.45 10.60L97.45 10.60Q97.27 10.57 97.05 10.55L97.05 10.55L97.05 10.55Q96.82 10.53 96.52 10.53L96.52 10.53L96.52 10.53Q95.91 10.53 95.30 10.63L95.30 10.63L95.30 10.63Q94.68 10.74 94.12 10.81L94.12 10.81L94.12 10.81Q93.80 11.55 93.53 12.24L93.53 12.24L93.53 12.24Q93.27 12.94 93.08 13.51L93.08 13.51L93.08 13.51Q92.89 14.08 92.78 14.50L92.78 14.50L92.78 14.50Q92.68 14.92 92.67 15.13L92.67 15.13L92.67 15.13Q93.80 14.90 94.95 14.73L94.95 14.73L94.95 14.73Q96.11 14.56 97.38 14.48L97.38 14.48L97.38 14.48Q97.54 14.71 97.64 14.99L97.64 14.99L97.64 14.99Q97.75 15.27 97.75 15.60L97.75 15.60L97.75 15.60Q97.75 15.68 97.75 15.78L97.75 15.78L97.75 15.78Q97.75 15.88 97.72 15.97L97.72 15.97L97.72 15.97Q97.33 15.96 96.89 15.95L96.89 15.95L96.89 15.95Q96.46 15.95 95.76 15.95L95.76 15.95L95.76 15.95Q95.30 15.95 94.89 15.97L94.89 15.97L94.89 15.97Q94.47 15.99 94.05 16.03L94.05 16.03L94.05 16.03Q93.63 16.07 93.16 16.14L93.16 16.14L93.16 16.14Q92.69 16.21 92.11 16.31L92.11 16.31L92.11 16.31Q91.46 16.06 90.86 15.08L90.86 15.08L90.86 15.08Q91.10 14.57 91.53 13.54L91.53 13.54L91.53 13.54Q91.95 12.52 92.61 10.79L92.61 10.79L92.61 10.79Q91.98 10.60 91.78 10.09L91.78 10.09L91.78 10.09Q91.85 10.02 92.19 9.92L92.19 9.92L92.19 9.92Q92.53 9.81 93.02 9.70L93.02 9.70L93.02 9.70Q93.23 9.16 93.37 8.75L93.37 8.75L93.37 8.75Q93.52 8.34 93.63 7.99L93.63 7.99L93.63 7.99Q93.74 7.63 93.83 7.29L93.83 7.29L93.83 7.29Q93.93 6.94 94.01 6.54L94.01 6.54L94.01 6.54Q93.52 6.51 93.24 6.27L93.24 6.27L93.24 6.27Q92.96 6.02 92.96 5.63L92.96 5.63L92.96 5.63Q92.96 5.52 93.00 5.36L93.00 5.36L93.00 5.36Q93.03 5.21 93.07 5.10L93.07 5.10L93.07 5.10Q93.35 5.14 93.61 5.15L93.61 5.15L93.61 5.15Q93.87 5.17 94.29 5.17L94.29 5.17L94.29 5.17Q95.17 5.17 95.94 5.12L95.94 5.12L95.94 5.12Q96.71 5.07 97.33 5.01L97.33 5.01L97.33 5.01Q97.96 4.96 98.41 4.91L98.41 4.91L98.41 4.91Q98.85 4.86 99.09 4.86L99.09 4.86L99.09 4.86Q99.41 4.86 99.67 5.19L99.67 5.19L99.67 5.19Q99.92 5.53 100.04 6.15L100.04 6.15L100.04 6.15Q99.61 6.10 99.34 6.09L99.34 6.09L99.34 6.09Q99.06 6.08 98.85 6.08L98.85 6.08L98.85 6.08Q98.08 6.08 97.45 6.15L97.45 6.15L97.45 6.15Q96.81 6.23 96.22 6.31L96.22 6.31L96.22 6.31Q96.14 6.44 96.03 6.64L96.03 6.64L96.03 6.64Q95.93 6.83 95.76 7.18L95.76 7.18L95.76 7.18Q95.59 7.53 95.35 8.06L95.35 8.06L95.35 8.06Q95.10 8.60 94.75 9.39L94.75 9.39L94.75 9.39Q95.28 9.31 95.75 9.26L95.75 9.26L95.75 9.26Q96.22 9.21 96.54 9.21ZM121.83 14.38L121.83 14.38L121.83 14.38Q122.18 14.98 122.18 15.54L122.18 15.54L122.18 15.54Q122.18 15.67 122.16 15.77L122.16 15.77L122.16 15.77Q122.14 15.88 122.11 15.99L122.11 15.99L122.11 15.99Q121.87 15.96 121.61 15.95L121.61 15.95L121.61 15.95Q121.35 15.93 121.07 15.93L121.07 15.93L121.07 15.93Q120.74 15.93 120.39 15.95L120.39 15.95L120.39 15.95Q120.05 15.97 119.63 16.02L119.63 16.02L119.63 16.02Q119.21 16.06 118.69 16.13L118.69 16.13L118.69 16.13Q118.17 16.20 117.49 16.31L117.49 16.31L117.49 16.31Q117.17 16.20 116.84 15.87L116.84 15.87L116.84 15.87Q116.52 15.54 116.24 15.08L116.24 15.08L116.24 15.08Q116.38 14.77 116.59 14.31L116.59 14.31L116.59 14.31Q116.80 13.86 117.08 13.21L117.08 13.21L117.08 13.21Q117.36 12.56 117.70 11.68L117.70 11.68L117.70 11.68Q118.05 10.81 118.44 9.66L118.44 9.66L118.44 9.66Q118.69 8.90 118.87 8.33L118.87 8.33L118.87 8.33Q119.06 7.76 119.20 7.22L119.20 7.22L119.20 7.22Q119.35 6.68 119.49 6.09L119.49 6.09L119.49 6.09Q119.63 5.50 119.80 4.73L119.80 4.73L119.80 4.73Q120.36 4.84 120.77 5.14L120.77 5.14L120.77 5.14Q121.18 5.45 121.56 6.01L121.56 6.01L121.56 6.01Q121.45 6.19 121.27 6.59L121.27 6.59L121.27 6.59Q121.09 7 120.84 7.58L120.84 7.58L120.84 7.58Q120.60 8.16 120.30 8.90L120.30 8.90L120.30 8.90Q120.01 9.63 119.69 10.47L119.69 10.47L119.69 10.47Q119.38 11.30 119.08 12.03L119.08 12.03L119.08 12.03Q118.79 12.75 118.56 13.34L118.56 13.34L118.56 13.34Q118.33 13.93 118.19 14.35L118.19 14.35L118.19 14.35Q118.05 14.77 118.05 14.98L118.05 14.98L118.05 14.98Q118.27 14.97 118.45 14.95L118.45 14.95L118.45 14.95Q118.64 14.94 118.83 14.90L118.83 14.90L118.83 14.90Q119.03 14.87 119.26 14.82L119.26 14.82L119.26 14.82Q119.49 14.77 119.81 14.69L119.81 14.69L119.81 14.69Q120.09 14.62 120.33 14.57L120.33 14.57L120.33 14.57Q120.57 14.52 120.80 14.48L120.80 14.48L120.80 14.48Q121.03 14.45 121.27 14.43L121.27 14.43L121.27 14.43Q121.52 14.41 121.83 14.38ZM130.79 14.38L130.79 14.38L130.79 14.38Q130.79 13.87 130.95 13.07L130.95 13.07L130.95 13.07Q131.11 12.26 131.37 11.33L131.37 11.33L131.37 11.33Q131.63 10.40 131.96 9.43L131.96 9.43L131.96 9.43Q132.30 8.46 132.65 7.60L132.65 7.60L132.65 7.60Q133 6.75 133.34 6.10L133.34 6.10L133.34 6.10Q133.67 5.46 133.94 5.18L133.94 5.18L133.94 5.18Q134.08 5.19 134.31 5.29L134.31 5.29L134.31 5.29Q134.54 5.38 134.78 5.50L134.78 5.50L134.78 5.50Q135.02 5.63 135.21 5.78L135.21 5.78L135.21 5.78Q135.41 5.92 135.46 6.05L135.46 6.05L135.46 6.05Q135.06 6.41 134.66 7.15L134.66 7.15L134.66 7.15Q134.26 7.88 133.89 8.82L133.89 8.82L133.89 8.82Q133.52 9.76 133.20 10.80L133.20 10.80L133.20 10.80Q132.87 11.84 132.64 12.82L132.64 12.82L132.64 12.82Q132.40 13.80 132.27 14.64L132.27 14.64L132.27 14.64Q132.13 15.48 132.13 16.00L132.13 16.00L132.13 16.00Q132.13 16.24 132.17 16.30L132.17 16.30L132.17 16.30Q131.87 16.28 131.73 16.19L131.73 16.19L131.73 16.19Q131.59 16.10 131.51 16.00L131.51 16.00L131.51 16.00Q131.43 15.89 131.37 15.79L131.37 15.79L131.37 15.79Q131.31 15.68 131.18 15.62L131.18 15.62L131.18 15.62Q131.08 15.58 131.01 15.43L131.01 15.43L131.01 15.43Q130.94 15.27 130.89 15.09L130.89 15.09L130.89 15.09Q130.84 14.90 130.82 14.70L130.82 14.70L130.82 14.70Q130.79 14.50 130.79 14.38ZM147.64 9.34L147.64 9.34L147.64 9.34Q148.09 9.34 148.35 9.59L148.35 9.59L148.35 9.59Q148.61 9.84 148.61 10.29L148.61 10.29L148.61 10.29Q148.61 10.40 148.60 10.52L148.60 10.52L148.60 10.52Q148.58 10.64 148.54 10.72L148.54 10.72L148.54 10.72Q148.36 10.70 148.13 10.68L148.13 10.68L148.13 10.68Q147.91 10.65 147.60 10.65L147.60 10.65L147.60 10.65Q146.97 10.65 146.34 10.77L146.34 10.77L146.34 10.77Q145.71 10.88 145.14 10.95L145.14 10.95L145.14 10.95Q144.51 12.43 144.10 13.73L144.10 13.73L144.10 13.73Q143.70 15.04 143.47 16.31L143.47 16.31L143.47 16.31Q143.00 16.20 142.63 15.90L142.63 15.90L142.63 15.90Q142.27 15.61 141.95 15.08L141.95 15.08L141.95 15.08Q142.04 14.85 142.18 14.54L142.18 14.54L142.18 14.54Q142.32 14.22 142.52 13.74L142.52 13.74L142.52 13.74Q142.72 13.26 142.99 12.56L142.99 12.56L142.99 12.56Q143.26 11.87 143.64 10.91L143.64 10.91L143.64 10.91Q143.05 10.71 142.87 10.22L142.87 10.22L142.87 10.22Q142.94 10.15 143.26 10.06L143.26 10.06L143.26 10.06Q143.58 9.97 144.05 9.86L144.05 9.86L144.05 9.86Q144.26 9.31 144.41 8.88L144.41 8.88L144.41 8.88Q144.56 8.46 144.69 8.07L144.69 8.07L144.69 8.07Q144.82 7.69 144.92 7.32L144.92 7.32L144.92 7.32Q145.03 6.94 145.11 6.52L145.11 6.52L145.04 6.52L145.04 6.52Q144.51 6.52 144.18 6.27L144.18 6.27L144.18 6.27Q143.85 6.02 143.85 5.61L143.85 5.61L143.85 5.61Q143.85 5.50 143.88 5.35L143.88 5.35L143.88 5.35Q143.92 5.19 143.98 5.08L143.98 5.08L143.98 5.08Q144.24 5.12 144.50 5.14L144.50 5.14L144.50 5.14Q144.76 5.15 145.18 5.15L145.18 5.15L145.18 5.15Q146.06 5.15 146.83 5.10L146.83 5.10L146.83 5.10Q147.60 5.05 148.22 5.00L148.22 5.00L148.22 5.00Q148.85 4.94 149.30 4.89L149.30 4.89L149.30 4.89Q149.74 4.84 149.98 4.84L149.98 4.84L149.98 4.84Q150.30 4.84 150.56 5.18L150.56 5.18L150.56 5.18Q150.81 5.52 150.95 6.13L150.95 6.13L150.95 6.13Q150.50 6.09 150.23 6.08L150.23 6.08L150.23 6.08Q149.95 6.06 149.74 6.06L149.74 6.06L149.74 6.06Q149.03 6.06 148.44 6.13L148.44 6.13L148.44 6.13Q147.84 6.19 147.31 6.27L147.31 6.27L147.31 6.27Q147.22 6.40 147.12 6.59L147.12 6.59L147.12 6.59Q147.01 6.79 146.85 7.15L146.85 7.15L146.85 7.15Q146.68 7.50 146.42 8.08L146.42 8.08L146.42 8.08Q146.16 8.65 145.77 9.53L145.77 9.53L145.77 9.53Q146.31 9.45 146.81 9.39L146.81 9.39L146.81 9.39Q147.31 9.34 147.64 9.34ZM162.27 9.21L162.27 9.21L162.27 9.21Q162.74 9.21 163.00 9.46L163.00 9.46L163.00 9.46Q163.25 9.72 163.25 10.16L163.25 10.16L163.25 10.16Q163.25 10.28 163.23 10.39L163.23 10.39L163.23 10.39Q163.21 10.51 163.18 10.60L163.18 10.60L163.18 10.60Q163.00 10.57 162.78 10.55L162.78 10.55L162.78 10.55Q162.55 10.53 162.25 10.53L162.25 10.53L162.25 10.53Q161.64 10.53 161.03 10.63L161.03 10.63L161.03 10.63Q160.41 10.74 159.85 10.81L159.85 10.81L159.85 10.81Q159.53 11.55 159.26 12.24L159.26 12.24L159.26 12.24Q159.00 12.94 158.81 13.51L158.81 13.51L158.81 13.51Q158.62 14.08 158.52 14.50L158.52 14.50L158.52 14.50Q158.41 14.92 158.40 15.13L158.40 15.13L158.40 15.13Q159.53 14.90 160.69 14.73L160.69 14.73L160.69 14.73Q161.84 14.56 163.11 14.48L163.11 14.48L163.11 14.48Q163.27 14.71 163.37 14.99L163.37 14.99L163.37 14.99Q163.48 15.27 163.48 15.60L163.48 15.60L163.48 15.60Q163.48 15.68 163.48 15.78L163.48 15.78L163.48 15.78Q163.48 15.88 163.45 15.97L163.45 15.97L163.45 15.97Q163.06 15.96 162.62 15.95L162.62 15.95L162.62 15.95Q162.19 15.95 161.49 15.95L161.49 15.95L161.49 15.95Q161.03 15.95 160.62 15.97L160.62 15.97L160.62 15.97Q160.20 15.99 159.78 16.03L159.78 16.03L159.78 16.03Q159.36 16.07 158.89 16.14L158.89 16.14L158.89 16.14Q158.42 16.21 157.84 16.31L157.84 16.31L157.84 16.31Q157.19 16.06 156.59 15.08L156.59 15.08L156.59 15.08Q156.83 14.57 157.25 13.54L157.25 13.54L157.25 13.54Q157.68 12.52 158.34 10.79L158.34 10.79L158.34 10.79Q157.71 10.60 157.51 10.09L157.51 10.09L157.51 10.09Q157.58 10.02 157.92 9.92L157.92 9.92L157.92 9.92Q158.26 9.81 158.75 9.70L158.75 9.70L158.75 9.70Q158.96 9.16 159.10 8.75L159.10 8.75L159.10 8.75Q159.25 8.34 159.36 7.99L159.36 7.99L159.36 7.99Q159.47 7.63 159.56 7.29L159.56 7.29L159.56 7.29Q159.66 6.94 159.74 6.54L159.74 6.54L159.74 6.54Q159.25 6.51 158.97 6.27L158.97 6.27L158.97 6.27Q158.69 6.02 158.69 5.63L158.69 5.63L158.69 5.63Q158.69 5.52 158.72 5.36L158.72 5.36L158.72 5.36Q158.76 5.21 158.80 5.10L158.80 5.10L158.80 5.10Q159.08 5.14 159.34 5.15L159.34 5.15L159.34 5.15Q159.60 5.17 160.02 5.17L160.02 5.17L160.02 5.17Q160.90 5.17 161.67 5.12L161.67 5.12L161.67 5.12Q162.44 5.07 163.06 5.01L163.06 5.01L163.06 5.01Q163.69 4.96 164.14 4.91L164.14 4.91L164.14 4.91Q164.58 4.86 164.82 4.86L164.82 4.86L164.82 4.86Q165.14 4.86 165.40 5.19L165.40 5.19L165.40 5.19Q165.65 5.53 165.77 6.15L165.77 6.15L165.77 6.15Q165.34 6.10 165.07 6.09L165.07 6.09L165.07 6.09Q164.79 6.08 164.58 6.08L164.58 6.08L164.58 6.08Q163.81 6.08 163.18 6.15L163.18 6.15L163.18 6.15Q162.54 6.23 161.95 6.31L161.95 6.31L161.95 6.31Q161.87 6.44 161.76 6.64L161.76 6.64L161.76 6.64Q161.66 6.83 161.49 7.18L161.49 7.18L161.49 7.18Q161.32 7.53 161.08 8.06L161.08 8.06L161.08 8.06Q160.83 8.60 160.48 9.39L160.48 9.39L160.48 9.39Q161.01 9.31 161.48 9.26L161.48 9.26L161.48 9.26Q161.95 9.21 162.27 9.21ZM185.12 6.69L185.12 6.69L185.12 6.69Q184.56 6.69 184.26 6.38L184.26 6.38L184.26 6.38Q183.96 6.06 183.96 5.61L183.96 5.61L183.96 5.61Q183.96 5.50 184.00 5.35L184.00 5.35L184.00 5.35Q184.03 5.19 184.09 5.08L184.09 5.08L184.09 5.08Q184.27 5.17 184.63 5.20L184.63 5.20L184.63 5.20Q184.98 5.24 185.46 5.24L185.46 5.24L185.46 5.24Q186.17 5.24 187.08 5.17L187.08 5.17L187.08 5.17Q187.98 5.11 188.80 5.04L188.80 5.04L188.80 5.04Q189.63 4.97 190.26 4.91L190.26 4.91L190.26 4.91Q190.89 4.84 191.07 4.84L191.07 4.84L191.07 4.84Q191.59 4.84 191.82 5.23L191.82 5.23L191.82 5.23Q192.05 5.61 192.16 6.26L192.16 6.26L192.16 6.26Q191.80 6.23 191.44 6.21L191.44 6.21L191.44 6.21Q191.09 6.19 190.83 6.19L190.83 6.19L190.83 6.19Q190.39 6.19 189.93 6.22L189.93 6.22L189.93 6.22Q189.48 6.24 189.01 6.30L189.01 6.30L189.01 6.30Q188.82 6.71 188.58 7.26L188.58 7.26L188.58 7.26Q188.34 7.81 188.11 8.41L188.11 8.41L188.11 8.41Q187.88 9.02 187.67 9.61L187.67 9.61L187.67 9.61Q187.46 10.21 187.31 10.68L187.31 10.68L187.31 10.68Q187.00 11.61 186.77 12.39L186.77 12.39L186.77 12.39Q186.54 13.17 186.36 13.85L186.36 13.85L186.36 13.85Q186.19 14.53 186.06 15.15L186.06 15.15L186.06 15.15Q185.93 15.76 185.84 16.35L185.84 16.35L185.84 16.35Q184.90 16.21 184.27 15.18L184.27 15.18L184.27 15.18Q184.38 14.74 184.54 14.23L184.54 14.23L184.54 14.23Q184.70 13.72 184.92 13.07L184.92 13.07L184.92 13.07Q185.14 12.42 185.43 11.59L185.43 11.59L185.43 11.59Q185.72 10.77 186.10 9.72L186.10 9.72L186.10 9.72Q186.24 9.32 186.40 8.90L186.40 8.90L186.40 8.90Q186.55 8.47 186.70 8.05L186.70 8.05L186.70 8.05Q186.84 7.63 186.96 7.24L186.96 7.24L186.96 7.24Q187.08 6.85 187.17 6.52L187.17 6.52L187.17 6.52Q186.58 6.59 186.05 6.64L186.05 6.64L186.05 6.64Q185.53 6.69 185.12 6.69ZM204.04 4.98L204.04 4.98L204.04 4.98Q204.30 5.10 204.58 5.27L204.58 5.27L204.58 5.27Q204.86 5.45 205.10 5.63L205.10 5.63L205.10 5.63Q205.34 5.81 205.50 5.98L205.50 5.98L205.50 5.98Q205.66 6.16 205.67 6.27L205.67 6.27L205.67 6.27Q205.44 6.22 205.20 6.20L205.20 6.20L205.20 6.20Q204.96 6.17 204.76 6.17L204.76 6.17L204.76 6.17Q204.13 6.17 203.51 6.48L203.51 6.48L203.51 6.48Q202.89 6.79 202.33 7.32L202.33 7.32L202.33 7.32Q201.77 7.85 201.29 8.57L201.29 8.57L201.29 8.57Q200.82 9.28 200.47 10.09L200.47 10.09L200.47 10.09Q200.13 10.91 199.93 11.77L199.93 11.77L199.93 11.77Q199.74 12.64 199.74 13.48L199.74 13.48L199.74 13.48Q199.74 14.57 200.10 15.11L200.10 15.11L200.10 15.11Q200.47 15.64 201.17 15.64L201.17 15.64L201.17 15.64Q201.50 15.64 201.89 15.51L201.89 15.51L201.89 15.51Q202.29 15.37 202.69 15.13L202.69 15.13L202.69 15.13Q203.10 14.90 203.49 14.56L203.49 14.56L203.49 14.56Q203.88 14.22 204.22 13.82L204.22 13.82L204.22 13.82Q204.71 13.23 205.10 12.48L205.10 12.48L205.10 12.48Q205.49 11.73 205.77 10.89L205.77 10.89L205.77 10.89Q206.04 10.05 206.19 9.16L206.19 9.16L206.19 9.16Q206.33 8.27 206.33 7.42L206.33 7.42L206.33 7.42Q206.33 7.08 206.32 6.85L206.32 6.85L206.32 6.85Q206.30 6.62 206.28 6.46L206.28 6.46L206.28 6.46Q206.26 6.30 206.25 6.20L206.25 6.20L206.25 6.20Q206.23 6.10 206.22 6.03L206.22 6.03L206.22 6.03Q206.39 6.12 206.59 6.24L206.59 6.24L206.59 6.24Q206.79 6.36 206.97 6.59L206.97 6.59L206.97 6.59Q207.14 6.82 207.26 7.20L207.26 7.20L207.26 7.20Q207.38 7.57 207.38 8.18L207.38 8.18L207.38 8.18Q207.38 9.16 207.15 10.10L207.15 10.10L207.15 10.10Q206.92 11.05 206.51 11.90L206.51 11.90L206.51 11.90Q206.09 12.75 205.53 13.50L205.53 13.50L205.53 13.50Q204.97 14.24 204.33 14.80L204.33 14.80L204.33 14.80Q203.49 15.54 202.54 15.95L202.54 15.95L202.54 15.95Q201.59 16.35 200.70 16.35L200.70 16.35L200.70 16.35Q199.42 16.35 198.74 15.53L198.74 15.53L198.74 15.53Q198.06 14.71 198.06 13.12L198.06 13.12L198.06 13.12Q198.06 12.26 198.25 11.31L198.25 11.31L198.25 11.31Q198.44 10.36 198.78 9.44L198.78 9.44L198.78 9.44Q199.12 8.51 199.60 7.68L199.60 7.68L199.60 7.68Q200.07 6.85 200.64 6.21L200.64 6.21L200.64 6.21Q201.21 5.57 201.86 5.19L201.86 5.19L201.86 5.19Q202.51 4.82 203.20 4.82L203.20 4.82L203.20 4.82Q203.42 4.82 203.62 4.85L203.62 4.85L203.62 4.85Q203.81 4.89 204.04 4.98ZM230.20 10.35L230.20 10.35L230.20 10.35Q231.25 9.20 232.09 7.91L232.09 7.91L232.09 7.91Q232.92 6.62 233.63 5.01L233.63 5.01L233.63 5.01Q234.00 5.05 234.33 5.21L234.33 5.21L234.33 5.21Q234.67 5.36 234.86 5.56L234.86 5.56L234.86 5.56Q234.09 6.48 233.47 7.24L233.47 7.24L233.47 7.24Q232.85 7.99 232.33 8.66L232.33 8.66L232.33 8.66Q231.81 9.32 231.37 9.93L231.37 9.93L231.37 9.93Q230.93 10.54 230.51 11.16L230.51 11.16L230.51 11.16Q230.30 11.87 230.12 12.60L230.12 12.60L230.12 12.60Q229.94 13.33 229.80 13.99L229.80 13.99L229.80 13.99Q229.66 14.66 229.58 15.22L229.58 15.22L229.58 15.22Q229.50 15.79 229.50 16.20L229.50 16.20L229.50 16.20Q229.35 16.20 229.01 16.14L229.01 16.14L229.01 16.14Q228.68 16.07 228.33 15.99L228.33 15.99L228.33 15.99Q227.98 15.90 227.69 15.82L227.69 15.82L227.69 15.82Q227.40 15.74 227.35 15.68L227.35 15.68L227.35 15.68Q227.57 15.30 227.79 14.75L227.79 14.75L227.79 14.75Q228.00 14.20 228.21 13.59L228.21 13.59L228.21 13.59Q228.42 12.98 228.62 12.36L228.62 12.36L228.62 12.36Q228.82 11.73 228.98 11.20L228.98 11.20L228.98 11.20Q228.63 10.11 228.31 9.15L228.31 9.15L228.31 9.15Q227.98 8.19 227.67 7.41L227.67 7.41L227.67 7.41Q227.36 6.64 227.08 6.08L227.08 6.08L227.08 6.08Q226.80 5.52 226.55 5.22L226.55 5.22L226.55 5.22Q226.69 5.17 226.98 5.11L226.98 5.11L226.98 5.11Q227.26 5.05 227.61 5.00L227.61 5.00L227.61 5.00Q227.95 4.94 228.31 4.91L228.31 4.91L228.31 4.91Q228.66 4.87 228.94 4.86L228.94 4.86L228.94 4.86Q228.94 5.21 229.01 5.71L229.01 5.71L229.01 5.71Q229.07 6.22 229.17 6.79L229.17 6.79L229.17 6.79Q229.28 7.36 229.42 7.95L229.42 7.95L229.42 7.95Q229.56 8.54 229.70 9.03L229.70 9.03L229.70 9.03Q229.84 9.52 229.97 9.88L229.97 9.88L229.97 9.88Q230.10 10.23 230.20 10.35ZM246.85 4.98L246.85 4.98L246.85 4.98Q247.11 5.10 247.39 5.27L247.39 5.27L247.39 5.27Q247.67 5.45 247.91 5.63L247.91 5.63L247.91 5.63Q248.15 5.81 248.31 5.98L248.31 5.98L248.31 5.98Q248.47 6.16 248.49 6.27L248.49 6.27L248.49 6.27Q248.25 6.22 248.01 6.20L248.01 6.20L248.01 6.20Q247.77 6.17 247.58 6.17L247.58 6.17L247.58 6.17Q246.95 6.17 246.32 6.48L246.32 6.48L246.32 6.48Q245.70 6.79 245.14 7.32L245.14 7.32L245.14 7.32Q244.58 7.85 244.10 8.57L244.10 8.57L244.10 8.57Q243.63 9.28 243.29 10.09L243.29 10.09L243.29 10.09Q242.94 10.91 242.75 11.77L242.75 11.77L242.75 11.77Q242.55 12.64 242.55 13.48L242.55 13.48L242.55 13.48Q242.55 14.57 242.91 15.11L242.91 15.11L242.91 15.11Q243.28 15.64 243.98 15.64L243.98 15.64L243.98 15.64Q244.31 15.64 244.71 15.51L244.71 15.51L244.71 15.51Q245.10 15.37 245.50 15.13L245.50 15.13L245.50 15.13Q245.91 14.90 246.30 14.56L246.30 14.56L246.30 14.56Q246.69 14.22 247.03 13.82L247.03 13.82L247.03 13.82Q247.52 13.23 247.91 12.48L247.91 12.48L247.91 12.48Q248.30 11.73 248.58 10.89L248.58 10.89L248.58 10.89Q248.85 10.05 249.00 9.16L249.00 9.16L249.00 9.16Q249.14 8.27 249.14 7.42L249.14 7.42L249.14 7.42Q249.14 7.08 249.13 6.85L249.13 6.85L249.13 6.85Q249.12 6.62 249.10 6.46L249.10 6.46L249.10 6.46Q249.07 6.30 249.06 6.20L249.06 6.20L249.06 6.20Q249.05 6.10 249.03 6.03L249.03 6.03L249.03 6.03Q249.20 6.12 249.40 6.24L249.40 6.24L249.40 6.24Q249.61 6.36 249.78 6.59L249.78 6.59L249.78 6.59Q249.96 6.82 250.08 7.20L250.08 7.20L250.08 7.20Q250.19 7.57 250.19 8.18L250.19 8.18L250.19 8.18Q250.19 9.16 249.96 10.10L249.96 10.10L249.96 10.10Q249.73 11.05 249.32 11.90L249.32 11.90L249.32 11.90Q248.91 12.75 248.35 13.50L248.35 13.50L248.35 13.50Q247.79 14.24 247.14 14.80L247.14 14.80L247.14 14.80Q246.30 15.54 245.35 15.95L245.35 15.95L245.35 15.95Q244.40 16.35 243.52 16.35L243.52 16.35L243.52 16.35Q242.23 16.35 241.55 15.53L241.55 15.53L241.55 15.53Q240.87 14.71 240.87 13.12L240.87 13.12L240.87 13.12Q240.87 12.26 241.06 11.31L241.06 11.31L241.06 11.31Q241.25 10.36 241.59 9.44L241.59 9.44L241.59 9.44Q241.93 8.51 242.41 7.68L242.41 7.68L242.41 7.68Q242.89 6.85 243.45 6.21L243.45 6.21L243.45 6.21Q244.02 5.57 244.67 5.19L244.67 5.19L244.67 5.19Q245.32 4.82 246.01 4.82L246.01 4.82L246.01 4.82Q246.23 4.82 246.43 4.85L246.43 4.85L246.43 4.85Q246.62 4.89 246.85 4.98ZM262.89 5.75L262.89 5.75L262.89 5.75Q262.28 6.58 261.77 7.57L261.77 7.57L261.77 7.57Q261.27 8.57 260.91 9.61L260.91 9.61L260.91 9.61Q260.55 10.65 260.37 11.67L260.37 11.67L260.37 11.67Q260.18 12.68 260.18 13.57L260.18 13.57L260.18 13.57Q260.18 14.66 260.50 15.15L260.50 15.15L260.50 15.15Q260.82 15.64 261.60 15.64L261.60 15.64L261.60 15.64Q262.51 15.64 263.20 15.00L263.20 15.00L263.20 15.00Q263.89 14.36 264.49 13.24L264.49 13.24L264.49 13.24Q264.88 12.52 265.16 11.65L265.16 11.65L265.16 11.65Q265.44 10.78 265.62 9.86L265.62 9.86L265.62 9.86Q265.79 8.95 265.87 8.02L265.87 8.02L265.87 8.02Q265.96 7.08 265.96 6.23L265.96 6.23L265.96 6.23Q265.96 5.68 265.94 5.43L265.94 5.43L265.94 5.43Q265.93 5.18 265.90 5.03L265.90 5.03L265.90 5.03Q265.94 5.03 266.11 5.05L266.11 5.05L266.11 5.05Q266.28 5.08 266.50 5.12L266.50 5.12L266.50 5.12Q266.71 5.17 266.93 5.24L266.93 5.24L266.93 5.24Q267.15 5.31 267.30 5.39L267.30 5.39L267.30 5.39Q267.23 6.45 267.04 7.59L267.04 7.59L267.04 7.59Q266.85 8.72 266.55 9.83L266.55 9.83L266.55 9.83Q266.24 10.93 265.83 11.96L265.83 11.96L265.83 11.96Q265.43 12.98 264.92 13.79L264.92 13.79L264.92 13.79Q264.18 14.99 263.26 15.67L263.26 15.67L263.26 15.67Q262.33 16.35 261.07 16.35L261.07 16.35L261.07 16.35Q259.78 16.35 259.07 15.60L259.07 15.60L259.07 15.60Q258.36 14.85 258.36 13.33L258.36 13.33L258.36 13.33Q258.36 12.45 258.55 11.33L258.55 11.33L258.55 11.33Q258.75 10.22 259.08 9.07L259.08 9.07L259.08 9.07Q259.41 7.91 259.84 6.81L259.84 6.81L259.84 6.81Q260.27 5.71 260.75 4.84L260.75 4.84L260.75 4.84Q260.99 4.86 261.31 4.94L261.31 4.94L261.31 4.94Q261.63 5.03 261.94 5.16L261.94 5.16L261.94 5.16Q262.25 5.29 262.51 5.45L262.51 5.45L262.51 5.45Q262.77 5.61 262.89 5.75ZM283.79 7.46L283.79 7.46L283.79 7.46Q283.79 8.13 283.49 8.73L283.49 8.73L283.49 8.73Q283.19 9.32 282.66 9.79L282.66 9.79L282.66 9.79Q282.13 10.26 281.41 10.58L281.41 10.58L281.41 10.58Q280.70 10.91 279.86 11.02L279.86 11.02L279.86 11.02Q280.07 11.65 280.37 12.31L280.37 12.31L280.37 12.31Q280.67 12.98 281.02 13.59L281.02 13.59L281.02 13.59Q281.37 14.21 281.75 14.73L281.75 14.73L281.75 14.73Q282.13 15.25 282.49 15.58L282.49 15.58L282.49 15.58Q282.42 15.72 282.29 15.86L282.29 15.86L282.29 15.86Q282.16 16.00 281.98 16.12L281.98 16.12L281.98 16.12Q281.81 16.24 281.62 16.32L281.62 16.32L281.62 16.32Q281.43 16.39 281.26 16.39L281.26 16.39L281.26 16.39Q280.95 16.39 280.67 16.10L280.67 16.10L280.67 16.10Q280.39 15.81 280.11 15.17L280.11 15.17L280.11 15.17Q279.82 14.53 279.50 13.52L279.50 13.52L279.50 13.52Q279.19 12.50 278.81 11.07L278.81 11.07L278.81 11.07Q278.66 11.07 278.50 11.07L278.50 11.07L278.50 11.07Q278.35 11.07 278.26 11.05L278.26 11.05L278.26 11.05Q278.17 10.99 278.05 10.85L278.05 10.85L278.05 10.85Q277.68 11.66 277.38 12.38L277.38 12.38L277.38 12.38Q277.09 13.09 276.86 13.76L276.86 13.76L276.86 13.76Q276.63 14.42 276.45 15.04L276.45 15.04L276.45 15.04Q276.28 15.67 276.15 16.31L276.15 16.31L276.15 16.31Q275.67 16.20 275.32 15.90L275.32 15.90L275.32 15.90Q274.97 15.61 274.67 15.08L274.67 15.08L274.67 15.08Q274.72 14.95 274.79 14.83L274.79 14.83L274.79 14.83Q274.85 14.71 274.95 14.50L274.95 14.50L274.95 14.50Q275.04 14.28 275.19 13.94L275.19 13.94L275.19 13.94Q275.34 13.61 275.58 13.05L275.58 13.05L275.58 13.05Q275.83 12.49 276.17 11.68L276.17 11.68L276.17 11.68Q276.51 10.86 277.00 9.70L277.00 9.70L277.00 9.70Q277.23 9.18 277.39 8.79L277.39 8.79L277.39 8.79Q277.55 8.40 277.68 8.04L277.68 8.04L277.68 8.04Q277.80 7.69 277.91 7.33L277.91 7.33L277.91 7.33Q278.01 6.97 278.12 6.51L278.12 6.51L278.12 6.51Q277.48 6.73 276.93 7.01L276.93 7.01L276.93 7.01Q276.37 7.28 276.01 7.59L276.01 7.59L276.01 7.59Q275.88 7.50 275.75 7.34L275.75 7.34L275.75 7.34Q275.62 7.17 275.51 6.96L275.51 6.96L275.51 6.96Q275.39 6.76 275.31 6.55L275.31 6.55L275.31 6.55Q275.23 6.34 275.21 6.17L275.21 6.17L275.21 6.17Q275.63 5.89 276.24 5.66L276.24 5.66L276.24 5.66Q276.85 5.42 277.54 5.24L277.54 5.24L277.54 5.24Q278.22 5.07 278.94 4.97L278.94 4.97L278.94 4.97Q279.65 4.87 280.27 4.87L280.27 4.87L280.27 4.87Q281.95 4.87 282.87 5.56L282.87 5.56L282.87 5.56Q283.79 6.26 283.79 7.46ZM280.21 6.02L280.38 6.29L280.38 6.29Q280.28 6.41 280.07 6.79L280.07 6.79L280.07 6.79Q279.86 7.17 279.59 7.69L279.59 7.69L279.59 7.69Q279.31 8.22 279.01 8.83L279.01 8.83L279.01 8.83Q278.71 9.45 278.43 10.05L278.43 10.05L278.43 10.05Q279.48 10.05 280.36 9.86L280.36 9.86L280.36 9.86Q281.25 9.66 281.89 9.30L281.89 9.30L281.89 9.30Q282.53 8.95 282.89 8.46L282.89 8.46L282.89 8.46Q283.25 7.98 283.25 7.39L283.25 7.39L283.25 7.39Q283.25 6.69 282.74 6.32L282.74 6.32L282.74 6.32Q282.24 5.95 281.19 5.95L281.19 5.95L281.19 5.95Q280.95 5.95 280.71 5.97L280.71 5.97L280.71 5.97Q280.48 5.99 280.21 6.02L280.21 6.02ZM302.22 14.45L302.22 14.45L302.22 14.45Q302.43 13.99 302.72 13.26L302.72 13.26L302.72 13.26Q303.02 12.53 303.34 11.68L303.34 11.68L303.34 11.68Q303.66 10.84 304.00 9.95L304.00 9.95L304.00 9.95Q304.33 9.06 304.63 8.26L304.63 8.26L304.63 8.26Q304.92 7.46 305.14 6.83L305.14 6.83L305.14 6.83Q305.35 6.20 305.45 5.87L305.45 5.87L305.45 5.87Q304.57 6.23 303.94 6.97L303.94 6.97L303.94 6.97Q303.31 7.71 302.99 8.83L302.99 8.83L302.99 8.83Q302.67 8.72 302.40 8.43L302.40 8.43L302.40 8.43Q302.13 8.15 302.05 7.71L302.05 7.71L302.05 7.71Q302.19 7.07 302.57 6.54L302.57 6.54L302.57 6.54Q302.96 6.01 303.55 5.63L303.55 5.63L303.55 5.63Q304.14 5.25 304.91 5.05L304.91 5.05L304.91 5.05Q305.68 4.84 306.56 4.84L306.56 4.84L306.56 4.84Q307.68 4.84 308.62 5.17L308.62 5.17L308.62 5.17Q309.55 5.50 310.23 6.09L310.23 6.09L310.23 6.09Q310.90 6.68 311.28 7.50L311.28 7.50L311.28 7.50Q311.65 8.33 311.65 9.34L311.65 9.34L311.65 9.34Q311.65 10.71 311.15 11.96L311.15 11.96L311.15 11.96Q310.65 13.20 309.78 14.15L309.78 14.15L309.78 14.15Q308.92 15.11 307.79 15.67L307.79 15.67L307.79 15.67Q306.66 16.24 305.41 16.24L305.41 16.24L305.41 16.24Q304.26 16.24 303.44 15.79L303.44 15.79L303.44 15.79Q302.62 15.33 302.22 14.45ZM307.16 5.54L307.16 5.54L307.16 5.54Q306.46 5.54 305.83 5.74L305.83 5.74L305.83 5.74Q306.45 5.96 306.85 6.21L306.85 6.21L306.85 6.21Q307.26 6.45 307.41 6.59L307.41 6.59L307.41 6.59Q307.30 6.75 307.08 7.14L307.08 7.14L307.08 7.14Q306.87 7.53 306.58 8.09L306.58 8.09L306.58 8.09Q306.29 8.65 305.97 9.32L305.97 9.32L305.97 9.32Q305.65 9.98 305.34 10.68L305.34 10.68L305.34 10.68Q304.54 12.46 304.19 13.48L304.19 13.48L304.19 13.48Q303.83 14.50 303.83 14.90L303.83 14.90L303.83 14.90Q304.02 14.97 304.30 14.99L304.30 14.99L304.30 14.99Q304.58 15.02 304.91 15.02L304.91 15.02L304.91 15.02Q306.04 15.02 307.06 14.50L307.06 14.50L307.06 14.50Q308.07 13.97 308.83 13.09L308.83 13.09L308.83 13.09Q309.60 12.21 310.04 11.04L310.04 11.04L310.04 11.04Q310.48 9.87 310.48 8.58L310.48 8.58L310.48 8.58Q310.48 7.14 309.58 6.34L309.58 6.34L309.58 6.34Q308.69 5.54 307.16 5.54ZM324.95 9.21L324.95 9.21L324.95 9.21Q325.42 9.21 325.67 9.46L325.67 9.46L325.67 9.46Q325.93 9.72 325.93 10.16L325.93 10.16L325.93 10.16Q325.93 10.28 325.91 10.39L325.91 10.39L325.91 10.39Q325.89 10.51 325.86 10.60L325.86 10.60L325.86 10.60Q325.68 10.57 325.46 10.55L325.46 10.55L325.46 10.55Q325.23 10.53 324.93 10.53L324.93 10.53L324.93 10.53Q324.32 10.53 323.71 10.63L323.71 10.63L323.71 10.63Q323.09 10.74 322.53 10.81L322.53 10.81L322.53 10.81Q322.21 11.55 321.94 12.24L321.94 12.24L321.94 12.24Q321.68 12.94 321.49 13.51L321.49 13.51L321.49 13.51Q321.30 14.08 321.19 14.50L321.19 14.50L321.19 14.50Q321.09 14.92 321.08 15.13L321.08 15.13L321.08 15.13Q322.21 14.90 323.37 14.73L323.37 14.73L323.37 14.73Q324.52 14.56 325.79 14.48L325.79 14.48L325.79 14.48Q325.95 14.71 326.05 14.99L326.05 14.99L326.05 14.99Q326.16 15.27 326.16 15.60L326.16 15.60L326.16 15.60Q326.16 15.68 326.16 15.78L326.16 15.78L326.16 15.78Q326.16 15.88 326.13 15.97L326.13 15.97L326.13 15.97Q325.74 15.96 325.30 15.95L325.30 15.95L325.30 15.95Q324.87 15.95 324.17 15.95L324.17 15.95L324.17 15.95Q323.71 15.95 323.29 15.97L323.29 15.97L323.29 15.97Q322.88 15.99 322.46 16.03L322.46 16.03L322.46 16.03Q322.04 16.07 321.57 16.14L321.57 16.14L321.57 16.14Q321.10 16.21 320.52 16.31L320.52 16.31L320.52 16.31Q319.87 16.06 319.27 15.08L319.27 15.08L319.27 15.08Q319.51 14.57 319.94 13.54L319.94 13.54L319.94 13.54Q320.36 12.52 321.02 10.79L321.02 10.79L321.02 10.79Q320.39 10.60 320.19 10.09L320.19 10.09L320.19 10.09Q320.26 10.02 320.60 9.92L320.60 9.92L320.60 9.92Q320.94 9.81 321.43 9.70L321.43 9.70L321.43 9.70Q321.64 9.16 321.78 8.75L321.78 8.75L321.78 8.75Q321.93 8.34 322.04 7.99L322.04 7.99L322.04 7.99Q322.15 7.63 322.25 7.29L322.25 7.29L322.25 7.29Q322.34 6.94 322.42 6.54L322.42 6.54L322.42 6.54Q321.93 6.51 321.65 6.27L321.65 6.27L321.65 6.27Q321.37 6.02 321.37 5.63L321.37 5.63L321.37 5.63Q321.37 5.52 321.40 5.36L321.40 5.36L321.40 5.36Q321.44 5.21 321.48 5.10L321.48 5.10L321.48 5.10Q321.76 5.14 322.02 5.15L322.02 5.15L322.02 5.15Q322.28 5.17 322.70 5.17L322.70 5.17L322.70 5.17Q323.58 5.17 324.35 5.12L324.35 5.12L324.35 5.12Q325.12 5.07 325.75 5.01L325.75 5.01L325.75 5.01Q326.37 4.96 326.82 4.91L326.82 4.91L326.82 4.91Q327.26 4.86 327.50 4.86L327.50 4.86L327.50 4.86Q327.82 4.86 328.08 5.19L328.08 5.19L328.08 5.19Q328.33 5.53 328.45 6.15L328.45 6.15L328.45 6.15Q328.02 6.10 327.75 6.09L327.75 6.09L327.75 6.09Q327.47 6.08 327.26 6.08L327.26 6.08L327.26 6.08Q326.49 6.08 325.86 6.15L325.86 6.15L325.86 6.15Q325.22 6.23 324.63 6.31L324.63 6.31L324.63 6.31Q324.55 6.44 324.44 6.64L324.44 6.64L324.44 6.64Q324.34 6.83 324.17 7.18L324.17 7.18L324.17 7.18Q324.00 7.53 323.76 8.06L323.76 8.06L323.76 8.06Q323.51 8.60 323.16 9.39L323.16 9.39L323.16 9.39Q323.69 9.31 324.16 9.26L324.16 9.26L324.16 9.26Q324.63 9.21 324.95 9.21ZM343.83 5.74L343.83 5.74L343.83 5.74Q343.87 5.98 343.89 6.07L343.89 6.07L343.89 6.07Q343.91 6.16 343.91 6.31L343.91 6.31L343.91 6.31Q343.91 6.78 343.71 7.18L343.71 7.18L343.71 7.18Q343.50 7.57 343.15 7.74L343.15 7.74L343.15 7.74Q342.87 7.36 342.47 7.09L342.47 7.09L342.47 7.09Q342.06 6.82 341.58 6.64L341.58 6.64L341.58 6.64Q341.10 6.47 340.58 6.38L340.58 6.38L340.58 6.38Q340.06 6.30 339.57 6.30L339.57 6.30L339.57 6.30Q339.08 6.30 338.65 6.38L338.65 6.38L338.65 6.38Q338.23 6.45 337.90 6.59L337.90 6.59L337.90 6.59Q337.57 6.72 337.38 6.92L337.38 6.92L337.38 6.92Q337.19 7.11 337.19 7.36L337.19 7.36L337.19 7.36Q337.23 7.67 337.57 7.99L337.57 7.99L337.57 7.99Q337.90 8.30 338.39 8.60L338.39 8.60L338.39 8.60Q338.88 8.90 339.48 9.20L339.48 9.20L339.48 9.20Q340.07 9.49 340.65 9.76L340.65 9.76L340.65 9.76Q341.36 10.09 341.88 10.38L341.88 10.38L341.88 10.38Q342.40 10.67 342.73 11.01L342.73 11.01L342.73 11.01Q343.07 11.35 343.24 11.79L343.24 11.79L343.24 11.79Q343.41 12.22 343.41 12.84L343.41 12.84L343.41 12.84Q343.41 13.55 343.17 14.18L343.17 14.18L343.17 14.18Q342.93 14.80 342.47 15.26L342.47 15.26L342.47 15.26Q342.02 15.72 341.38 15.98L341.38 15.98L341.38 15.98Q340.73 16.24 339.93 16.24L339.93 16.24L339.93 16.24Q339.15 16.24 338.24 16.00L338.24 16.00L338.24 16.00Q337.33 15.76 336.54 15.35L336.54 15.35L336.54 15.35Q335.75 14.94 335.22 14.40L335.22 14.40L335.22 14.40Q334.70 13.86 334.70 13.26L334.70 13.26L334.70 13.26Q334.70 12.98 334.86 12.54L334.86 12.54L334.86 12.54Q335.02 12.11 335.44 11.63L335.44 11.63L335.44 11.63Q335.48 12.05 335.89 12.63L335.89 12.63L335.89 12.63Q336.31 13.20 337.13 13.69L337.13 13.69L337.13 13.69Q337.90 14.14 338.72 14.34L338.72 14.34L338.72 14.34Q339.54 14.55 340.26 14.55L340.26 14.55L340.26 14.55Q341.04 14.55 341.53 14.35L341.53 14.35L341.53 14.35Q342.02 14.15 342.30 13.88L342.30 13.88L342.30 13.88Q342.58 13.61 342.69 13.33L342.69 13.33L342.69 13.33Q342.80 13.05 342.82 12.88L342.82 12.88L342.82 12.88Q342.80 12.60 342.56 12.34L342.56 12.34L342.56 12.34Q342.31 12.08 341.90 11.84L341.90 11.84L341.90 11.84Q341.49 11.59 340.94 11.34L340.94 11.34L340.94 11.34Q340.40 11.09 339.81 10.84L339.81 10.84L339.81 10.84Q338.93 10.44 338.29 10.10L338.29 10.10L338.29 10.10Q337.65 9.76 337.24 9.40L337.24 9.40L337.24 9.40Q336.83 9.04 336.64 8.65L336.64 8.65L336.64 8.65Q336.45 8.26 336.45 7.76L336.45 7.76L336.45 7.76Q336.45 6.97 336.92 6.27L336.92 6.27L336.92 6.27Q337.40 5.57 338.30 5.21L338.30 5.21L338.30 5.21Q338.74 5.01 339.25 4.93L339.25 4.93L339.25 4.93Q339.77 4.84 340.26 4.84L340.26 4.84L340.26 4.84Q341.18 4.84 342.06 5.10L342.06 5.10L342.06 5.10Q342.94 5.35 343.83 5.74ZM351.95 14.38L351.95 14.38L351.95 14.38Q351.95 13.87 352.11 13.07L352.11 13.07L352.11 13.07Q352.27 12.26 352.53 11.33L352.53 11.33L352.53 11.33Q352.79 10.40 353.12 9.43L353.12 9.43L353.12 9.43Q353.46 8.46 353.81 7.60L353.81 7.60L353.81 7.60Q354.16 6.75 354.49 6.10L354.49 6.10L354.49 6.10Q354.83 5.46 355.10 5.18L355.10 5.18L355.10 5.18Q355.24 5.19 355.47 5.29L355.47 5.29L355.47 5.29Q355.70 5.38 355.94 5.50L355.94 5.50L355.94 5.50Q356.17 5.63 356.37 5.78L356.37 5.78L356.37 5.78Q356.57 5.92 356.62 6.05L356.62 6.05L356.62 6.05Q356.22 6.41 355.82 7.15L355.82 7.15L355.82 7.15Q355.42 7.88 355.05 8.82L355.05 8.82L355.05 8.82Q354.68 9.76 354.35 10.80L354.35 10.80L354.35 10.80Q354.03 11.84 353.79 12.82L353.79 12.82L353.79 12.82Q353.56 13.80 353.42 14.64L353.42 14.64L353.42 14.64Q353.29 15.48 353.29 16.00L353.29 16.00L353.29 16.00Q353.29 16.24 353.33 16.30L353.33 16.30L353.33 16.30Q353.02 16.28 352.88 16.19L352.88 16.19L352.88 16.19Q352.74 16.10 352.67 16.00L352.67 16.00L352.67 16.00Q352.59 15.89 352.53 15.79L352.53 15.79L352.53 15.79Q352.46 15.68 352.34 15.62L352.34 15.62L352.34 15.62Q352.24 15.58 352.17 15.43L352.17 15.43L352.17 15.43Q352.10 15.27 352.05 15.09L352.05 15.09L352.05 15.09Q352.00 14.90 351.97 14.70L351.97 14.70L351.97 14.70Q351.95 14.50 351.95 14.38ZM370.69 10.72L370.69 10.72L370.69 10.72Q371.06 10.72 371.27 10.98L371.27 10.98L371.27 10.98Q371.48 11.23 371.48 11.68L371.48 11.68L371.48 11.68Q371.48 11.79 371.46 11.91L371.46 11.91L371.46 11.91Q371.45 12.03 371.42 12.11L371.42 12.11L371.42 12.11Q371.13 12.04 370.78 12.03L370.78 12.03L370.78 12.03Q370.69 12.64 370.33 13.32L370.33 13.32L370.33 13.32Q369.96 14 369.45 14.60L369.45 14.60L369.45 14.60Q368.93 15.19 368.31 15.64L368.31 15.64L368.31 15.64Q367.70 16.09 367.09 16.24L367.09 16.24L367.09 16.24Q365.22 16.20 364.36 15.27L364.36 15.27L364.36 15.27Q363.50 14.34 363.50 12.36L363.50 12.36L363.50 12.36Q363.50 10.92 364.03 9.57L364.03 9.57L364.03 9.57Q364.56 8.22 365.44 7.17L365.44 7.17L365.44 7.17Q366.32 6.12 367.46 5.48L367.46 5.48L367.46 5.48Q368.61 4.84 369.84 4.84L369.84 4.84L369.84 4.84Q370.80 4.84 371.34 5.25L371.34 5.25L371.34 5.25Q371.88 5.66 371.88 6.40L371.88 6.40L371.88 6.40Q371.88 6.89 371.65 7.31L371.65 7.31L371.65 7.31Q371.42 7.73 370.89 8.22L370.89 8.22L370.89 8.22Q370.57 8.12 370.33 7.88L370.33 7.88L370.33 7.88Q370.09 7.63 370.03 7.31L370.03 7.31L370.03 7.31Q370.51 6.96 370.71 6.66L370.71 6.66L370.71 6.66Q370.90 6.37 370.90 5.96L370.90 5.96L370.90 5.96Q370.90 5.32 370.13 5.32L370.13 5.32L370.13 5.32Q369.50 5.32 368.78 5.79L368.78 5.79L368.78 5.79Q368.06 6.26 367.33 7.14L367.33 7.14L367.33 7.14Q366.30 8.39 365.82 9.71L365.82 9.71L365.82 9.71Q365.34 11.03 365.34 12.68L365.34 12.68L365.34 12.68Q365.34 13.30 365.47 13.80L365.47 13.80L365.47 13.80Q365.60 14.31 365.81 14.69L365.81 14.69L365.81 14.69Q366.02 15.06 366.30 15.29L366.30 15.29L366.30 15.29Q366.59 15.51 366.93 15.54L366.93 15.54L366.93 15.54Q367.37 15.44 367.82 15.09L367.82 15.09L367.82 15.09Q368.27 14.73 368.64 14.25L368.64 14.25L368.64 14.25Q369.01 13.76 369.27 13.21L369.27 13.21L369.27 13.21Q369.53 12.66 369.59 12.15L369.59 12.15L369.59 12.15Q369.19 12.24 368.84 12.31L368.84 12.31L368.84 12.31Q368.48 12.39 368.16 12.39L368.16 12.39L368.16 12.39Q367.74 12.39 367.42 12.18L367.42 12.18L367.42 12.18Q367.11 11.97 367.00 11.61L367.00 11.61L367.00 11.61Q367.25 11.47 367.73 11.31L367.73 11.31L367.73 11.31Q368.21 11.16 368.76 11.03L368.76 11.03L368.76 11.03Q369.31 10.89 369.83 10.81L369.83 10.81L369.83 10.81Q370.36 10.72 370.69 10.72ZM380.28 16.24L380.28 16.24L380.28 16.24Q379.48 16.00 379.20 15.79L379.20 15.79L379.20 15.79Q378.92 15.57 378.92 15.19L378.92 15.19L378.92 15.19Q378.92 14.77 379.12 14.01L379.12 14.01L379.12 14.01Q379.32 13.24 379.63 12.31L379.63 12.31L379.63 12.31Q379.95 11.37 380.35 10.35L380.35 10.35L380.35 10.35Q380.76 9.32 381.18 8.39L381.18 8.39L381.18 8.39Q381.60 7.45 382.00 6.67L382.00 6.67L382.00 6.67Q382.40 5.89 382.70 5.46L382.70 5.46L382.61 4.87L382.61 4.87Q382.80 4.87 383.15 4.97L383.15 4.97L383.15 4.97Q383.50 5.07 383.86 5.21L383.86 5.21L383.86 5.21Q384.22 5.35 384.49 5.49L384.49 5.49L384.49 5.49Q384.76 5.64 384.79 5.74L384.79 5.74L384.79 5.74Q384.72 6.08 384.68 6.76L384.68 6.76L384.68 6.76Q384.64 7.43 384.64 8.20L384.64 8.20L384.64 8.20Q384.64 9.73 384.75 11.19L384.75 11.19L384.75 11.19Q384.87 12.66 385.31 14.17L385.31 14.17L385.31 14.17Q385.53 13.05 385.79 11.94L385.79 11.94L385.79 11.94Q386.05 10.82 386.33 9.81L386.33 9.81L386.33 9.81Q386.61 8.79 386.89 7.92L386.89 7.92L386.89 7.92Q387.17 7.06 387.43 6.40L387.43 6.40L387.43 6.40Q387.69 5.75 387.91 5.38L387.91 5.38L387.91 5.38Q388.14 5.01 388.32 4.98L388.32 4.98L388.32 4.98Q388.47 5.01 388.65 5.10L388.65 5.10L388.65 5.10Q388.84 5.19 389.00 5.32L389.00 5.32L389.00 5.32Q389.17 5.45 389.31 5.60L389.31 5.60L389.31 5.60Q389.45 5.75 389.54 5.91L389.54 5.91L389.54 5.91Q389.09 6.09 388.65 6.76L388.65 6.76L388.65 6.76Q388.21 7.43 387.81 8.39L387.81 8.39L387.81 8.39Q387.41 9.35 387.06 10.47L387.06 10.47L387.06 10.47Q386.72 11.59 386.46 12.68L386.46 12.68L386.46 12.68Q386.20 13.76 386.06 14.69L386.06 14.69L386.06 14.69Q385.91 15.61 385.90 16.17L385.90 16.17L385.90 16.17Q385.90 16.20 385.91 16.21L385.91 16.21L385.91 16.21Q385.87 16.23 385.82 16.23L385.82 16.23L385.82 16.23Q385.77 16.23 385.73 16.23L385.73 16.23L385.73 16.23Q385.08 16.23 384.59 16.07L384.59 16.07L384.59 16.07Q384.09 15.90 383.94 15.61L383.94 15.61L383.94 15.61Q383.64 14.43 383.45 13.34L383.45 13.34L383.45 13.34Q383.25 12.25 383.12 11.16L383.12 11.16L383.12 11.16Q382.98 10.07 382.91 8.95L382.91 8.95L382.91 8.95Q382.83 7.84 382.79 6.62L382.79 6.62L382.79 6.62Q382.52 7.04 382.23 7.72L382.23 7.72L382.23 7.72Q381.93 8.40 381.65 9.21L381.65 9.21L381.65 9.21Q381.37 10.02 381.12 10.92L381.12 10.92L381.12 10.92Q380.86 11.82 380.66 12.67L380.66 12.67L380.66 12.67Q380.46 13.52 380.35 14.29L380.35 14.29L380.35 14.29Q380.24 15.05 380.24 15.61L380.24 15.61L380.24 15.61Q380.24 15.90 380.25 16.03L380.25 16.03L380.25 16.03Q380.25 16.16 380.28 16.24ZM404.73 5.74L404.73 5.74L404.73 5.74Q404.77 5.98 404.79 6.07L404.79 6.07L404.79 6.07Q404.81 6.16 404.81 6.31L404.81 6.31L404.81 6.31Q404.81 6.78 404.61 7.18L404.61 7.18L404.61 7.18Q404.40 7.57 404.05 7.74L404.05 7.74L404.05 7.74Q403.77 7.36 403.37 7.09L403.37 7.09L403.37 7.09Q402.96 6.82 402.48 6.64L402.48 6.64L402.48 6.64Q402.00 6.47 401.48 6.38L401.48 6.38L401.48 6.38Q400.96 6.30 400.47 6.30L400.47 6.30L400.47 6.30Q399.98 6.30 399.55 6.38L399.55 6.38L399.55 6.38Q399.13 6.45 398.80 6.59L398.80 6.59L398.80 6.59Q398.47 6.72 398.28 6.92L398.28 6.92L398.28 6.92Q398.09 7.11 398.09 7.36L398.09 7.36L398.09 7.36Q398.13 7.67 398.47 7.99L398.47 7.99L398.47 7.99Q398.80 8.30 399.29 8.60L399.29 8.60L399.29 8.60Q399.78 8.90 400.38 9.20L400.38 9.20L400.38 9.20Q400.97 9.49 401.55 9.76L401.55 9.76L401.55 9.76Q402.26 10.09 402.78 10.38L402.78 10.38L402.78 10.38Q403.30 10.67 403.63 11.01L403.63 11.01L403.63 11.01Q403.97 11.35 404.14 11.79L404.14 11.79L404.14 11.79Q404.31 12.22 404.31 12.84L404.31 12.84L404.31 12.84Q404.31 13.55 404.07 14.18L404.07 14.18L404.07 14.18Q403.83 14.80 403.38 15.26L403.38 15.26L403.38 15.26Q402.92 15.72 402.28 15.98L402.28 15.98L402.28 15.98Q401.63 16.24 400.83 16.24L400.83 16.24L400.83 16.24Q400.05 16.24 399.14 16.00L399.14 16.00L399.14 16.00Q398.23 15.76 397.44 15.35L397.44 15.35L397.44 15.35Q396.65 14.94 396.12 14.40L396.12 14.40L396.12 14.40Q395.60 13.86 395.60 13.26L395.60 13.26L395.60 13.26Q395.60 12.98 395.76 12.54L395.76 12.54L395.76 12.54Q395.92 12.11 396.34 11.63L396.34 11.63L396.34 11.63Q396.38 12.05 396.80 12.63L396.80 12.63L396.80 12.63Q397.21 13.20 398.03 13.69L398.03 13.69L398.03 13.69Q398.80 14.14 399.62 14.34L399.62 14.34L399.62 14.34Q400.44 14.55 401.16 14.55L401.16 14.55L401.16 14.55Q401.94 14.55 402.43 14.35L402.43 14.35L402.43 14.35Q402.92 14.15 403.20 13.88L403.20 13.88L403.20 13.88Q403.48 13.61 403.59 13.33L403.59 13.33L403.59 13.33Q403.70 13.05 403.72 12.88L403.72 12.88L403.72 12.88Q403.70 12.60 403.46 12.34L403.46 12.34L403.46 12.34Q403.21 12.08 402.80 11.84L402.80 11.84L402.80 11.84Q402.39 11.59 401.84 11.34L401.84 11.34L401.84 11.34Q401.30 11.09 400.71 10.84L400.71 10.84L400.71 10.84Q399.83 10.44 399.19 10.10L399.19 10.10L399.19 10.10Q398.55 9.76 398.14 9.40L398.14 9.40L398.14 9.40Q397.73 9.04 397.54 8.65L397.54 8.65L397.54 8.65Q397.35 8.26 397.35 7.76L397.35 7.76L397.35 7.76Q397.35 6.97 397.82 6.27L397.82 6.27L397.82 6.27Q398.30 5.57 399.20 5.21L399.20 5.21L399.20 5.21Q399.64 5.01 400.16 4.93L400.16 4.93L400.16 4.93Q400.67 4.84 401.16 4.84L401.16 4.84L401.16 4.84Q402.08 4.84 402.96 5.10L402.96 5.10L402.96 5.10Q403.84 5.35 404.73 5.74Z"></path></g></svg>