<svg data-v-423bf9ae="" xmlns="http://www.w3.org/2000/svg" viewBox="0 0 108.40218359473403 60" class="font"><!----><!----><!----><g data-v-423bf9ae="" id="ae1ce0e2-6e06-49c4-9a66-5ac3cae2a710" fill="white" transform="matrix(4.676539736296766,0,0,4.676539736296766,-1.3094308945266562,-15.432581622040274)"><path d="M0.28 13.33L0.28 13.33L0.28 13.33Q0.28 13.13 0.49 13.06L0.49 13.06L0.49 13.06Q0.94 12.89 1.27 12.31L1.27 12.31L1.27 12.31Q1.61 11.73 2.94 8.83L2.94 8.83L2.94 8.83Q4.31 5.87 5.36 3.63L5.36 3.63L5.36 3.63Q5.46 3.42 5.54 3.36L5.54 3.36L5.54 3.36Q5.61 3.30 5.78 3.30L5.78 3.30L5.78 3.30Q5.91 3.30 5.95 3.36L5.95 3.36L5.95 3.36Q5.99 3.42 6.13 3.82L6.13 3.82L6.13 3.82Q6.22 4.06 6.28 4.23L6.28 4.23L6.28 4.23Q6.34 4.40 6.48 4.77L6.48 4.77L6.48 4.77Q6.62 5.15 6.79 5.56L6.79 5.56L6.79 5.56Q7.24 6.66 8.34 9.22L8.34 9.22L8.34 9.22Q9.44 11.77 9.53 11.98L9.53 11.98L9.53 11.98Q9.77 12.46 10.07 12.71L10.07 12.71L10.07 12.71Q10.36 12.95 10.58 12.97L10.58 12.97L10.58 12.97Q10.79 12.99 10.94 13.04L10.94 13.04L10.94 13.04Q11.09 13.09 11.09 13.26L11.09 13.26L11.09 13.26Q11.09 13.47 10.71 13.47L10.71 13.47L10.71 13.47Q10.56 13.47 10.11 13.43L10.11 13.43L10.11 13.43Q9.66 13.38 9.45 13.38L9.45 13.38L9.45 13.38Q9.18 13.38 8.76 13.41L8.76 13.41L8.76 13.41Q8.34 13.44 8.15 13.44L8.15 13.44L8.15 13.44Q7.71 13.44 7.59 13.40L7.59 13.40L7.59 13.40Q7.48 13.37 7.48 13.24L7.48 13.24L7.48 13.24Q7.48 13.15 7.59 13.08L7.59 13.08L7.59 13.08Q7.70 13.02 7.83 13.00L7.83 13.00L7.83 13.00Q7.95 12.98 8.06 12.87L8.06 12.87L8.06 12.87Q8.18 12.77 8.18 12.59L8.18 12.59L8.18 12.59Q8.18 12.28 7.83 11.33L7.83 11.33L7.83 11.33Q7.48 10.37 7.24 9.93L7.24 9.93L7.24 9.93Q7.11 9.69 6.66 9.69L6.66 9.69L6.66 9.69Q6.59 9.69 6.05 9.70L6.05 9.70L6.05 9.70Q5.50 9.72 4.97 9.72L4.97 9.72L4.23 9.72L4.23 9.72Q3.60 9.72 3.44 9.79L3.44 9.79L3.44 9.79Q3.28 9.86 3.15 10.12L3.15 10.12L3.15 10.12Q3.07 10.30 2.87 10.70L2.87 10.70L2.87 10.70Q2.67 11.10 2.60 11.26L2.60 11.26L2.60 11.26Q2.53 11.41 2.43 11.65L2.43 11.65L2.43 11.65Q2.32 11.90 2.29 12.05L2.29 12.05L2.29 12.05Q2.25 12.19 2.25 12.31L2.25 12.31L2.25 12.31Q2.25 12.63 2.42 12.80L2.42 12.80L2.42 12.80Q2.58 12.96 2.77 12.98L2.77 12.98L2.77 12.98Q2.97 13.01 3.13 13.06L3.13 13.06L3.13 13.06Q3.29 13.12 3.29 13.26L3.29 13.26L3.29 13.26Q3.29 13.36 3.25 13.40L3.25 13.40L3.25 13.40Q3.21 13.45 3.05 13.45L3.05 13.45L3.05 13.45Q2.97 13.45 2.57 13.45L2.57 13.45L2.57 13.45Q2.17 13.44 1.89 13.44L1.89 13.44L1.89 13.44Q1.58 13.44 1.20 13.47L1.20 13.47L1.20 13.47Q0.81 13.50 0.69 13.50L0.69 13.50L0.69 13.50Q0.28 13.50 0.28 13.33ZM3.79 8.71L3.79 8.71L3.79 8.71Q3.79 8.89 3.92 8.93L3.92 8.93L3.92 8.93Q4.05 8.97 4.51 8.97L4.51 8.97L4.94 8.97L6.27 8.96L6.27 8.96Q6.82 8.96 6.82 8.74L6.82 8.74L6.82 8.74Q6.82 8.55 6.13 7.01L6.13 7.01L6.13 7.01Q5.45 5.46 5.26 5.46L5.26 5.46L5.26 5.46Q5.14 5.46 4.47 7.01L4.47 7.01L4.47 7.01Q3.79 8.55 3.79 8.71ZM10.53 15.60L10.53 15.60L10.53 15.60Q10.53 15.39 10.69 15.11L10.69 15.11L10.69 15.11Q10.85 14.83 10.96 14.83L10.96 14.83L10.96 14.83Q11.05 14.83 11.26 15.06L11.26 15.06L11.26 15.06Q11.48 15.30 11.77 15.30L11.77 15.30L11.77 15.30Q12.54 15.30 12.74 14.21L12.74 14.21L12.74 14.21Q12.92 13.26 12.92 12.52L12.92 12.52L12.92 12.52Q12.92 12.36 12.92 11.94L12.92 11.94L12.92 11.94Q12.92 11.52 12.92 11.16L12.92 11.16L12.91 10.79L12.91 10.79Q12.91 10.51 12.90 10.30L12.90 10.30L12.90 10.30Q12.89 10.09 12.89 9.86L12.89 9.86L12.89 9.86Q12.88 9.62 12.87 8.64L12.87 8.64L12.87 8.64Q12.87 7.66 12.87 6.02L12.87 6.02L12.87 6.02Q12.87 5.12 12.81 4.63L12.81 4.63L12.81 4.63Q12.77 4.30 12.44 4.13L12.44 4.13L12.44 4.13Q12.11 3.96 11.75 3.95L11.75 3.95L11.75 3.95Q11.44 3.93 11.44 3.70L11.44 3.70L11.44 3.70Q11.44 3.46 11.84 3.46L11.84 3.46L11.84 3.46Q11.98 3.46 12.48 3.50L12.48 3.50L12.48 3.50Q12.98 3.54 13.43 3.54L13.43 3.54L13.43 3.54Q13.69 3.54 13.89 3.54L13.89 3.54L13.89 3.54Q14.08 3.53 14.56 3.53L14.56 3.53L14.56 3.53Q14.95 3.53 14.95 3.71L14.95 3.71L14.95 3.71Q14.95 3.84 14.31 4.10L14.31 4.10L14.31 4.10Q14.01 4.21 14.01 5.05L14.01 5.05L14.01 5.70L14.01 5.70Q14.01 8.02 14.01 9.50L14.01 9.50L14.01 9.50Q14 10.98 14 11.40L14 11.40L14 11.40Q14 11.82 13.99 12.07L13.99 12.07L13.99 12.07Q13.99 12.32 13.99 12.47L13.99 12.47L13.99 12.47Q13.99 14.07 13.13 15.10L13.13 15.10L13.13 15.10Q12.26 16.13 11.09 16.13L11.09 16.13L11.09 16.13Q10.53 16.13 10.53 15.60ZM16.00 4.35L16.00 4.35L16.00 4.35Q16.00 4.27 16.38 3.89L16.38 3.89L16.38 3.89Q16.41 3.86 16.53 3.72L16.53 3.72L16.53 3.72Q16.65 3.57 16.74 3.51L16.74 3.51L16.74 3.51Q16.83 3.46 16.94 3.46L16.94 3.46L16.94 3.46Q16.98 3.46 17.08 3.51L17.08 3.51L17.08 3.51Q17.18 3.56 17.32 3.68L17.32 3.68L17.32 3.68Q17.46 3.81 17.58 3.98L17.58 3.98L17.58 3.98Q17.71 4.14 17.79 4.42L17.79 4.42L17.79 4.42Q17.88 4.70 17.88 5.03L17.88 5.03L17.88 5.03Q17.88 5.61 17.68 6.12L17.68 6.12L17.68 6.12Q17.49 6.62 17.22 6.89L17.22 6.89L17.22 6.89Q16.95 7.17 16.72 7.31L16.72 7.31L16.72 7.31Q16.49 7.46 16.37 7.46L16.37 7.46L16.37 7.46Q16.30 7.46 16.24 7.40L16.24 7.40L16.24 7.40Q16.18 7.34 16.18 7.29L16.18 7.29L16.18 7.29Q16.18 7.21 16.30 7.10L16.30 7.10L16.30 7.10Q16.42 7.00 16.58 6.88L16.58 6.88L16.58 6.88Q16.73 6.76 16.85 6.50L16.85 6.50L16.85 6.50Q16.97 6.23 16.97 5.87L16.97 5.87L16.97 5.87Q16.97 5.49 16.81 5.23L16.81 5.23L16.81 5.23Q16.66 4.97 16.48 4.87L16.48 4.87L16.48 4.87Q16.31 4.77 16.16 4.65L16.16 4.65L16.16 4.65Q16.00 4.52 16.00 4.35ZM19.26 12.84L19.26 12.84L19.26 11.62L19.26 11.62Q19.26 11.47 19.33 11.36L19.33 11.36L19.33 11.36Q19.39 11.26 19.47 11.26L19.47 11.26L19.47 11.26Q19.61 11.26 19.66 11.32L19.66 11.32L19.66 11.32Q19.71 11.38 19.75 11.58L19.75 11.58L19.75 11.58Q19.80 11.77 19.84 11.86L19.84 11.86L19.84 11.86Q20.36 13.15 21.29 13.15L21.29 13.15L21.29 13.15Q21.73 13.15 22.12 12.91L22.12 12.91L22.12 12.91Q22.51 12.68 22.51 12.15L22.51 12.15L22.51 12.15Q22.51 11.69 22.19 11.38L22.19 11.38L22.19 11.38Q21.87 11.07 21.41 10.90L21.41 10.90L21.41 10.90Q20.94 10.72 20.48 10.54L20.48 10.54L20.48 10.54Q20.02 10.35 19.70 9.97L19.70 9.97L19.70 9.97Q19.38 9.60 19.38 9.04L19.38 9.04L19.38 9.04Q19.38 8.26 20.01 7.78L20.01 7.78L20.01 7.78Q20.64 7.31 21.49 7.31L21.49 7.31L21.49 7.31Q22.15 7.31 22.54 7.43L22.54 7.43L22.54 7.43Q22.93 7.55 23.01 7.64L23.01 7.64L23.01 7.64Q23.09 7.74 23.09 7.83L23.09 7.83L23.09 7.83Q23.09 7.84 23.11 8.20L23.11 8.20L23.11 8.20Q23.14 8.57 23.14 8.67L23.14 8.67L23.14 8.67Q23.14 8.90 23.09 8.99L23.09 8.99L23.09 8.99Q23.03 9.07 22.89 9.07L22.89 9.07L22.89 9.07Q22.82 9.07 22.70 8.87L22.70 8.87L22.70 8.87Q22.58 8.67 22.43 8.43L22.43 8.43L22.43 8.43Q22.29 8.19 21.96 7.99L21.96 7.99L21.96 7.99Q21.63 7.78 21.20 7.78L21.20 7.78L21.20 7.78Q20.79 7.78 20.52 7.99L20.52 7.99L20.52 7.99Q20.26 8.19 20.26 8.50L20.26 8.50L20.26 8.50Q20.26 8.67 20.30 8.81L20.30 8.81L20.30 8.81Q20.34 8.96 20.45 9.07L20.45 9.07L20.45 9.07Q20.55 9.18 20.63 9.26L20.63 9.26L20.63 9.26Q20.71 9.34 20.89 9.42L20.89 9.42L20.89 9.42Q21.07 9.51 21.16 9.54L21.16 9.54L21.16 9.54Q21.25 9.58 21.47 9.65L21.47 9.65L21.47 9.65Q21.69 9.73 21.76 9.76L21.76 9.76L21.76 9.76Q22.76 10.14 23.11 10.55L23.11 10.55L23.11 10.55Q23.46 10.96 23.46 11.77L23.46 11.77L23.46 11.77Q23.46 12.56 22.72 13.23L22.72 13.23L22.72 13.23Q22.22 13.66 21.34 13.66L21.34 13.66L21.34 13.66Q21.08 13.66 20.80 13.61L20.80 13.61L20.80 13.61Q20.52 13.55 20.36 13.50L20.36 13.50L20.36 13.50Q20.20 13.45 19.99 13.37L19.99 13.37L19.99 13.37Q19.78 13.29 19.77 13.29L19.77 13.29L19.77 13.29Q19.71 13.27 19.63 13.24L19.63 13.24L19.63 13.24Q19.56 13.22 19.52 13.21L19.52 13.21L19.52 13.21Q19.49 13.20 19.43 13.17L19.43 13.17L19.43 13.17Q19.38 13.15 19.36 13.13L19.36 13.13L19.36 13.13Q19.33 13.10 19.31 13.06L19.31 13.06L19.31 13.06Q19.28 13.02 19.27 12.96L19.27 12.96L19.27 12.96Q19.26 12.91 19.26 12.84Z"></path></g><!----><!----></svg>